<?xml version="1.0" encoding="UTF-8"?>
<svg version="1.1" xmlns="http://www.w3.org/2000/svg" width="270" height="250">
<path d="M0 0 C89.1 0 178.2 0 270 0 C270 82.5 270 165 270 250 C180.9 250 91.8 250 0 250 C0 167.5 0 85 0 0 Z " fill="#223A44" transform="translate(0,0)"/>
<path d="M0 0 C0.33 0 0.66 0 1 0 C1 57.09 1 114.18 1 173 C-88.1 173 -177.2 173 -269 173 C-269 139.01 -269 105.02 -269 70 C-267.03706234 71.96293766 -266.31652719 73.27094455 -265.1875 75.75 C-261.79024192 82.64443552 -257.75569392 86.55592075 -251 90 C-251.495 91.051875 -251.99 92.10375 -252.5 93.1875 C-255.80487955 102.1533694 -254.56042665 111.50003194 -251.26171875 120.2734375 C-247.36494138 128.69433719 -241.50246317 134.40567725 -232.875 137.8125 C-220.71827603 141.35906534 -207.94509393 138.57732414 -196.87402344 132.91210938 C-194.06059901 131.35783093 -191.28722091 129.74432627 -188.52612305 128.09912109 C-184.37138994 125.65296828 -180.78330683 124.08816797 -175.96484375 123.39453125 C-172.89868561 122.77886132 -170.34679792 121.30913662 -167.62890625 119.8046875 C-166 119 -166 119 -164 119 C-163.78085938 119.66386719 -163.56171875 120.32773438 -163.3359375 121.01171875 C-161.17436037 127.03074449 -159.37151923 130.45708306 -154 134 C-150.53421089 135.15526304 -147.80255626 135.14829848 -144.14526367 135.17700195 C-143.45220627 135.18357315 -142.75914886 135.19014435 -142.04508972 135.19691467 C-139.75271492 135.21661645 -137.46040552 135.22830314 -135.16796875 135.23828125 C-134.38386438 135.24235678 -133.59976002 135.2464323 -132.79189491 135.25063133 C-128.64178354 135.27147861 -124.49170511 135.2857862 -120.34155273 135.29516602 C-116.06088542 135.30622875 -111.78073817 135.34063044 -107.50025463 135.38033772 C-104.20334422 135.40651425 -100.90655757 135.41485873 -97.60955238 135.41844749 C-96.03192952 135.42331067 -94.45431208 135.43491709 -92.876791 135.45348549 C-90.66508416 135.47790087 -88.45472098 135.47690845 -86.24291992 135.4699707 C-84.35786995 135.47877007 -84.35786995 135.47877007 -82.43473816 135.48774719 C-78.34863138 134.90750293 -76.1952737 133.564922 -73 131 C-71.47967461 128.70996307 -71.47967461 128.70996307 -70.625 126.25 C-70.30789062 125.45078125 -69.99078125 124.6515625 -69.6640625 123.828125 C-69.33535156 122.92320312 -69.33535156 122.92320312 -69 122 C-66.22616425 122.87594813 -63.52029273 123.7461514 -60.90234375 125.0234375 C-52.49401373 128.98195013 -43.53986224 129.75279706 -34.6171875 126.9296875 C-26.15535892 123.04869845 -20.54622548 117.78355551 -16.5625 109.375 C-13.51846373 100.7081369 -13.67024038 91.94701376 -17.4375 83.5625 C-21.80748113 75.83258055 -28.49264726 70.59546355 -37 68 C-40.99489079 67.49183379 -44.97828155 67.1915104 -49 67 C-49.268125 66.21496094 -49.53625 65.42992187 -49.8125 64.62109375 C-53.12227911 55.74783726 -56.7901328 50.66755219 -65.25 46.3359375 C-69.45128498 44.83922973 -72.72403715 44.58350749 -77.125 44.6875 C-77.81464844 44.68427734 -78.50429687 44.68105469 -79.21484375 44.67773438 C-83.23752703 44.72003793 -86.38007807 45.23229493 -90 47 C-90.39832031 46.44570312 -90.79664063 45.89140625 -91.20703125 45.3203125 C-91.73683594 44.59585938 -92.26664063 43.87140625 -92.8125 43.125 C-93.33457031 42.40570313 -93.85664063 41.68640625 -94.39453125 40.9453125 C-96.03272777 38.76971345 -96.03272777 38.76971345 -99 37 C-99.1875 34.375 -99.1875 34.375 -99 32 C-97.69675781 31.87044922 -97.69675781 31.87044922 -96.3671875 31.73828125 C-87.06183323 30.63055498 -87.06183323 30.63055498 -80 25 C-78.02415498 21.77441556 -77.64278378 18.99897299 -77.375 15.25 C-77.30023438 14.26515625 -77.22546875 13.2803125 -77.1484375 12.265625 C-77.07496094 11.14414063 -77.07496094 11.14414063 -77 10 C-73.50356251 11.3252406 -70.29949745 12.86692992 -67.05078125 14.71484375 C-66.11943359 15.23626953 -65.18808594 15.75769531 -64.22851562 16.29492188 C-62.30099476 17.38068547 -60.3764477 18.47174721 -58.45507812 19.56835938 C-46.82830215 26.04898846 -34.89281581 29.74737628 -21.58203125 26.05078125 C-11.65011563 22.13970392 -6.84303055 17.4932702 -2.19921875 7.9375 C-1.10658307 5.26107645 -0.44484734 2.84702299 0 0 Z " fill="#E0E0E1" transform="translate(269,77)"/>
<path d="M0 0 C89.1 0 178.2 0 270 0 C270 21.78 270 43.56 270 66 C268.68558087 64.0283713 267.41285866 62.02817985 266.1875 60 C263.87728041 56.83169885 262.49218867 55.67762005 259 54 C255.69196232 53.57257792 255.69196232 53.57257792 252.1875 53.5625 C246.8517422 53.30045129 243.21658329 52.65432957 238.671875 49.88671875 C236.83556412 48.76394588 236.83556412 48.76394588 233.75 48.8125 C231 48 231 48 229.98828125 46.15625 C229.35713237 44.55840473 228.73238995 42.9580176 228.11328125 41.35546875 C225.73881331 36.33159448 221.28280331 33.35698652 216.3125 31.125 C211.0299506 29.34331174 205.5002138 29.75249038 200 30 C199.75765625 29.27554687 199.5153125 28.55109375 199.265625 27.8046875 C195.83356569 17.90451641 192.31248715 12.10838307 183 7 C175.27218664 3.96407332 167.884563 4.1734594 160.15234375 7 C156.73573125 8.58739165 153.95618426 10.67279111 151 13 C150.38511719 12.57847656 149.77023438 12.15695312 149.13671875 11.72265625 C148.32847656 11.17480469 147.52023438 10.62695312 146.6875 10.0625 C145.48673828 9.24458984 145.48673828 9.24458984 144.26171875 8.41015625 C138.22866498 4.64861495 130.83838768 5.40655768 124 6 C116.69254 8.06033787 110.96117253 12.5381403 107 19 C105.37435512 22.93145573 104.10203004 26.89305576 103 31 C102.32195312 30.95359375 101.64390625 30.9071875 100.9453125 30.859375 C92.98924896 30.5508296 86.11856664 31.42437058 79.92578125 36.80078125 C74.23726567 42.94246998 71.39328172 49.0147039 71.63671875 57.4453125 C72.13643872 60.9594723 73.39584505 63.79338924 74.9765625 66.94921875 C76.27324484 69.54753259 77.14730048 72.22872655 78 75 C77.195625 75.61875 76.39125 76.2375 75.5625 76.875 C72.96125481 78.74164041 72.96125481 78.74164041 72 81 C69.40078978 80.55442111 67.13027658 80.05757958 64.7109375 78.98828125 C57.89627587 76.50397377 50.10524248 77.04887316 43.5625 80.0625 C34.98902137 85.0509584 31.68497809 91.63772037 29 101 C28.24014434 104.44385134 28.24014434 104.44385134 28 107 C26.948125 107.11214844 26.948125 107.11214844 25.875 107.2265625 C16.64371654 108.50589798 11.35030151 111.76446507 5.625 119.0625 C3.61073421 121.91421868 2.04937545 124.64199857 1 128 C0.67 128 0.34 128 0 128 C0 85.76 0 43.52 0 0 Z " fill="#E1E1E1" transform="translate(0,0)"/>
<path d="M0 0 C5.91978981 5.17677093 7.19302464 11.43112765 8 19 C8.721875 17.906875 9.44375 16.81375 10.1875 15.6875 C13.04426018 11.75945475 15.35042924 9.59603701 20.22265625 8.5 C26.30177049 7.5979985 31.59815254 7.888936 37 11 C40.97351563 14.51094988 44.86758967 18.71541848 46 24 C46.14342971 27.34138091 46.10646441 30.65820062 46 34 C46 34.66 46 35.32 46 36 C47.11375 35.34 48.2275 34.68 49.375 34 C54.92624724 31.25379995 60.25513911 30.8778697 66.203125 32.66015625 C72.48209992 35.42817764 77.48180176 40.58486149 80 47 C80.90302341 54.63292423 80.86302249 61.54955927 76.55859375 68.09765625 C72.05835915 73.59042379 67.30736769 77.45073835 60.08984375 78.37109375 C48.39480442 78.61745765 40.58394864 74.65140195 30.84228516 68.60791016 C21.41609158 62.76114891 12.83533752 58.4478118 2 56 C0.94039063 55.75894531 -0.11921875 55.51789063 -1.2109375 55.26953125 C-16.13646275 52.46864553 -30.64273682 53.10547846 -45 58 C-45.83015625 58.25394531 -46.6603125 58.50789063 -47.515625 58.76953125 C-54.41583006 61.1517449 -60.46377551 65.2043381 -66.58129883 69.11547852 C-72.94984733 73.15057645 -78.26357979 75.67863335 -86 75 C-90.60824884 73.43788175 -93.95227068 71.83788137 -97 68 C-99.80264432 62.18146669 -99.74906752 56.32885622 -99 50 C-97.79924245 46.84429007 -96.22406651 44.52143474 -94 42 C-93.29875 41.175 -92.5975 40.35 -91.875 39.5 C-87.34743514 37.13779225 -82.99442772 37.25902927 -78 38 C-75.30592163 39.07577656 -73.38584169 40.30340147 -71 42 C-71.495 41.0925 -71.99 40.185 -72.5 39.25 C-75.06672604 33.14168563 -75.11963621 26.45460403 -73.0859375 20.1796875 C-70.3080296 14.17582205 -67.00676144 10.00338072 -61 7 C-53.55054081 6.3104446 -48.001085 6.34609734 -42 11 C-40.20011447 12.92677041 -38.61565675 14.90915008 -37 17 C-36.67 17 -36.34 17 -36 17 C-35.7525 15.80375 -35.505 14.6075 -35.25 13.375 C-33.49674495 6.47155825 -29.74420449 2.13582723 -24 -2 C-15.74496255 -5.76860405 -7.64715555 -4.51412359 0 0 Z " fill="#42482B" transform="translate(167,120)"/>
<path d="M0 0 C3.95478251 2.91900614 7.41112181 6.50974362 9.625 10.9375 C9.85122081 12.64113822 10.03388473 14.35078701 10.1875 16.0625 C10.27128906 16.97257812 10.35507813 17.88265625 10.44140625 18.8203125 C10.50199219 19.51898438 10.56257813 20.21765625 10.625 20.9375 C11.04910156 20.46699219 11.47320312 19.99648437 11.91015625 19.51171875 C16.21622972 14.94065614 20.17517567 11.11961025 26.8203125 10.84765625 C33.15009369 11.26606551 38.14157419 13.14639311 42.390625 17.921875 C46.20419565 23.08979785 47.32040433 26.56296035 46.625 32.9375 C45.76777344 33.32679687 44.91054687 33.71609375 44.02734375 34.1171875 C35.89630665 38.09562053 31.13147176 41.79307649 26.625 49.9375 C24.34882901 48.82834888 22.25358243 47.69607858 20.125 46.3125 C14.60510736 44.14397075 7.78767693 43.64182268 2.203125 45.9296875 C-1.10911511 47.22447227 -4.01465005 47.25367456 -7.5625 47.375 C-20.47510229 48.07513746 -29.35813168 51.8713905 -38.6015625 61.1796875 C-41.19118746 64.06926902 -43.658844 67.03487941 -46.0703125 70.07421875 C-51.02904065 76.12847987 -56.89497059 80.44415686 -64.375 82.9375 C-72.30968116 83.55251341 -79.87280394 84.06044235 -86.375 78.9375 C-92.12015796 73.86282958 -94.72966612 67.99659891 -95.69140625 60.45703125 C-95.98929955 54.25892867 -94.83959232 49.12958988 -91.375 43.9375 C-87.56145446 39.84772179 -83.96033088 36.26864957 -78.17578125 35.734375 C-72.16363493 35.62111636 -67.8727923 36.49403675 -62.375 38.9375 C-63.035 37.82375 -63.695 36.71 -64.375 35.5625 C-66.79601381 30.64237515 -67.33663221 26.33936441 -66.375 20.9375 C-64.09942777 14.83702976 -60.7249021 10.57998653 -55.375 6.9375 C-49.42262561 4.98693334 -42.63014054 4.85169159 -37 7.5625 C-34.10180484 10.18467657 -31.76296677 12.84719007 -29.375 15.9375 C-29.01148437 15.04998047 -29.01148437 15.04998047 -28.640625 14.14453125 C-26.21302469 8.42099667 -24.02953475 3.86203769 -18.875 0.125 C-12.67196125 -1.97960243 -6.24588196 -1.96629617 0 0 Z " fill="#2F3F32" transform="translate(102.375,79.0625)"/>
<path d="M0 0 C3.63 0 7.26 0 11 0 C11 5.94 11 11.88 11 18 C19.25 18 27.5 18 36 18 C36 14.37 36 10.74 36 7 C39.88755968 8.14859718 43.08390606 9.12761624 46 12 C46.49609375 14.77734375 46.49609375 14.77734375 46.4375 17.9375 C46.43621094 18.97777344 46.43492187 20.01804688 46.43359375 21.08984375 C45.93463255 24.4387275 45.40865886 25.64277282 43 28 C40.01541138 28.50793457 40.01541138 28.50793457 36.31298828 28.51757812 C35.63783173 28.5245874 34.96267517 28.53159668 34.26705933 28.53881836 C32.03439226 28.55642784 29.80299255 28.54476406 27.5703125 28.53125 C26.01715858 28.53394474 24.4640063 28.537827 22.91085815 28.54284668 C19.6541133 28.5487462 16.39780714 28.54016706 13.14111328 28.52148438 C8.97232554 28.49873187 4.80456996 28.51179057 0.63582039 28.53577423 C-2.57276128 28.55025275 -5.78109974 28.54561629 -8.98968887 28.53526306 C-10.52623746 28.53259945 -12.06280832 28.53585271 -13.5993309 28.54518127 C-15.75154494 28.55537722 -17.9021077 28.53980513 -20.05419922 28.51757812 C-21.27759003 28.51439575 -22.50098083 28.51121338 -23.76144409 28.50793457 C-27.61729783 27.90318311 -29.25712286 26.72717193 -32 24 C-34.39320332 19.09963129 -34.21311443 14.32786071 -34 9 C-27.375 5 -27.375 5 -24 5 C-23.93941406 5.69867188 -23.87882812 6.39734375 -23.81640625 7.1171875 C-23.73261719 8.02726563 -23.64882812 8.93734375 -23.5625 9.875 C-23.48128906 10.77992188 -23.40007812 11.68484375 -23.31640625 12.6171875 C-23.13010715 15.01110861 -23.13010715 15.01110861 -22 17 C-14.74 17.33 -7.48 17.66 0 18 C0 12.06 0 6.12 0 0 Z " fill="#873229" transform="translate(146,177)"/>
<path d="M0 0 C2.5 1.5625 2.5 1.5625 4 4 C4.57289582 8.01027077 4.64226201 10.07228821 2.3125 13.4375 C-0.41622005 15.28122976 -1.7865091 15.13322931 -5 15 C-3.83727699 24.16414283 -3.83727699 24.16414283 1.5859375 31.1484375 C7.1284852 34.33823026 12.70128665 34.76842966 19 35 C19 34.34 19 33.68 19 33 C18.278125 32.79375 17.55625 32.5875 16.8125 32.375 C11.87932752 29.96322679 9.25788336 26.06281572 7.1875 21.125 C5.45073055 15.93454043 4.94635139 11.20308347 7.375 6.125 C9 4 9 4 11 2 C17.96019496 1.44760357 17.96019496 1.44760357 21 3.0625 C22.60856522 6.17909511 22.42213381 8.56262469 22 12 C20.25 14.4375 20.25 14.4375 18 16 C16.68 16 15.36 16 14 16 C14.98714173 21.4841207 16.57405435 24.39152043 21.00390625 27.8359375 C24.45415992 29.84802281 26.99065724 30 31 30 C33.0078864 29.35747635 35.00882592 28.69258229 37 28 C40.375 28.375 40.375 28.375 43 29 C38.6638584 32.41334716 33.99715389 34.70220156 29 37 C27.948125 37.48919922 27.948125 37.48919922 26.875 37.98828125 C19.17542532 41.06519462 9.88369101 41.69198743 2.0234375 38.96875 C-5.5798116 34.8340526 -10.32466954 28.15795834 -13 20 C-14.44817961 6.9663835 -14.44817961 6.9663835 -11 2.125 C-6.83726829 -0.82360163 -5.02455429 -0.7975483 0 0 Z " fill="#DB4430" transform="translate(35,169)"/>
<path d="M0 0 C4.04967033 0.63942163 5.69346902 1.69346902 8.5625 4.5625 C10.93160375 9.30070751 10.06885532 15.84633782 8.4375 20.75 C5.86976128 26.73331569 1.52810788 31.82154503 -4.4375 34.5625 C-5.4275 34.5625 -6.4175 34.5625 -7.4375 34.5625 C-7.4375 35.2225 -7.4375 35.8825 -7.4375 36.5625 C4.78925583 37.48758133 4.78925583 37.48758133 15.5625 32.5625 C19.00088051 28.4907336 20.34390854 24.63996443 21.5625 19.5625 C20.655 19.645 19.7475 19.7275 18.8125 19.8125 C15.5625 19.5625 15.5625 19.5625 13.1875 18 C10.93909481 14.62739221 10.99466055 12.53737617 11.5625 8.5625 C13.125 6.125 13.125 6.125 15.5625 4.5625 C19.82393432 3.94265501 21.80638322 4.06938036 25.4375 6.4375 C28.6664943 9.6664943 28.76639207 11.64921007 28.875 16.125 C28.81369835 23.4286534 26.57502151 28.15669436 22.9375 34.3125 C16.33815355 40.56451243 9.38086812 42.27302 0.44824219 42.07910156 C-5.61650984 41.75629564 -10.1491056 40.44914508 -15.4375 37.5625 C-16.08879883 37.20849121 -16.74009766 36.85448242 -17.41113281 36.48974609 C-22.12593662 33.91373536 -26.79140838 31.26023062 -31.4375 28.5625 C-31.4375 27.9025 -31.4375 27.2425 -31.4375 26.5625 C-27.06654569 26.00212124 -24.65645304 26.83982735 -21 29.0625 C-16.91096107 31.459759 -14.25697919 32.45499615 -9.4375 31.5625 C-4.31396262 29.05388004 -1.46139296 25.95954789 0.5625 20.5625 C1.26157414 17.82677415 1.26157414 17.82677415 1.5625 15.5625 C0.44875 15.68625 0.44875 15.68625 -0.6875 15.8125 C-3.4375 15.5625 -3.4375 15.5625 -5.75 13.9375 C-7.95251916 10.83765822 -8.0472266 9.2970754 -7.4375 5.5625 C-5.34838357 1.71852577 -4.36166466 0.71372694 0 0 Z " fill="#DA4430" transform="translate(233.4375,55.4375)"/>
<path d="M0 0 C3.63 0 7.26 0 11 0 C11 6.93 11 13.86 11 21 C13.454375 20.855625 15.90875 20.71125 18.4375 20.5625 C19.21150146 20.51939697 19.98550293 20.47629395 20.78295898 20.43188477 C24.18161081 20.50204421 24.18161081 20.50204421 27 19 C27.23481693 16.81707226 27.41363323 14.62796826 27.5625 12.4375 C27.64628906 11.23996094 27.73007813 10.04242188 27.81640625 8.80859375 C27.90728516 7.41833984 27.90728516 7.41833984 28 6 C31.48670834 7.1094072 34.77484237 8.26337666 38 10 C38.56853774 22.82368467 38.56853774 22.82368467 35 29 C32.703463 30.1482685 31.41686833 30.11561175 28.8671875 30.09765625 C28.06152344 30.09443359 27.25585938 30.09121094 26.42578125 30.08789062 C25.58402344 30.07951172 24.74226563 30.07113281 23.875 30.0625 C23.02550781 30.05798828 22.17601562 30.05347656 21.30078125 30.04882812 C19.20049091 30.03702874 17.1002367 30.01909306 15 30 C15 33.96 15 37.92 15 42 C11.7 42 8.4 42 5 42 C4.99742187 41.23816406 4.99484375 40.47632813 4.9921875 39.69140625 C4.69762058 31.82646943 3.0099251 27.06706526 -2 21 C-1.34 21 -0.68 21 0 21 C0 14.07 0 7.14 0 0 Z " fill="#84322A" transform="translate(147,71)"/>
<path d="M0 0 C0.14050644 3.51266091 0.20411661 6.40125796 -0.9375 9.75 C-2.4640773 14.41953058 -2.66992219 19.11832298 -3 24 C-3.79664063 24.02578125 -4.59328125 24.0515625 -5.4140625 24.078125 C-11.79171527 24.41950787 -16.15729322 24.68082909 -21 29 C-21.33 29.66 -21.66 30.32 -22 31 C-31.01531729 31.63019694 -31.01531729 31.63019694 -35.125 29 C-35.74375 28.34 -36.3625 27.68 -37 27 C-35.32598022 23.04322598 -32.86850715 20.15535787 -30 17 C-29.34 17 -28.68 17 -28 17 C-27.67 17.99 -27.34 18.98 -27 20 C-20.07 20.495 -20.07 20.495 -13 21 C-13 14.73 -13 8.46 -13 2 C-7.90207844 0.30069281 -5.15625988 -0.2062504 0 0 Z " fill="#83322A" transform="translate(92,130)"/>
<path d="M0 0 C0.33 0 0.66 0 1 0 C1.05407567 2.58361518 1.093707 5.16609255 1.125 7.75 C1.14175781 8.47960938 1.15851563 9.20921875 1.17578125 9.9609375 C1.24115063 17.15156984 1.24115063 17.15156984 -1 20 C-4.5 20.875 -4.5 20.875 -8 21 C-10 19 -10 19 -10.5 16.375 C-9.77588695 11.48723689 -7.11537158 8.70950112 -4 5 C-2.8553125 3.515 -2.8553125 3.515 -1.6875 2 C-1.130625 1.34 -0.57375 0.68 0 0 Z " fill="#434F4D" transform="translate(171,35)"/>
<path d="M0 0 C-4.12751678 11.00671141 -4.12751678 11.00671141 -7.9375 15.0625 C-10.69970515 16.3180478 -12.165132 15.96982326 -15 15 C-15.66 14.34 -16.32 13.68 -17 13 C-17 10.125 -17 10.125 -16 7 C-11.88410068 3.48642741 -5.56696864 0 0 0 Z " fill="#434F4C" transform="translate(207,53)"/>
<path d="M0 0 C4.54737166 4.46326491 10.42158773 10.29257589 10.5625 17 C10 20 10 20 8 22 C5.5625 22.375 5.5625 22.375 3 22 C0.93452228 20.18903613 0.08509745 18.7222351 -0.23754883 15.98388672 C-0.29551129 13.56580507 -0.26116126 11.16760036 -0.1875 8.75 C-0.17396484 7.90953125 -0.16042969 7.0690625 -0.14648438 6.203125 C-0.11123464 4.13514062 -0.0574302 2.06748729 0 0 Z " fill="#434F4D" transform="translate(131,34)"/>
<path d="M0 0 C5.91423961 2.09860115 12.46481363 4.69722044 16 10 C16.25 12.5625 16.25 12.5625 16 15 C14 17 14 17 11.125 17.4375 C8 17 8 17 5.875 15.125 C3.25676808 10.76128014 0 5.20994914 0 0 Z " fill="#434F4D" transform="translate(96,53)"/>
<path d="M0 0 C3.24718037 6.2760629 4.47534949 11.98859504 4 19 C2 21 2 21 -1 21.25 C-4 21 -4 21 -6 19 C-7.26094067 11.74959116 -3.4194956 6.19783577 0 0 Z " fill="#465C2F" transform="translate(153,140)"/>
<path d="M0 0 C0.21394207 6.09734903 0.16584083 11.69967112 -3.3125 17 C-5 18 -5 18 -7.5625 17.8125 C-10 17 -10 17 -12 15 C-12.180576 11.99040007 -12.17727373 10.69314389 -11 8 C-3.82373473 0 -3.82373473 0 0 0 Z " fill="#465C2F" transform="translate(193,150)"/>
<path d="M0 0 C10.20171195 8.33903982 10.20171195 8.33903982 11.9375 14.125 C12 17 12 17 10.875 18.9375 C9 20 9 20 6.5 20 C3.12304295 18.64921718 2.56144489 17.25924131 1 14 C0.48828125 10.44921875 0.48828125 10.44921875 0.3125 6.6875 C0.24675781 5.43324219 0.18101563 4.17898437 0.11328125 2.88671875 C0.07589844 1.93410156 0.03851563 0.98148438 0 0 Z " fill="#465C2F" transform="translate(112,146)"/>
<path d="M0 0 C0.33 0.66 0.66 1.32 1 2 C0.109375 4.49609375 0.109375 4.49609375 -1.25 7.4375 C-1.68828125 8.40558594 -2.1265625 9.37367188 -2.578125 10.37109375 C-3.86902319 12.75783684 -4.85702503 14.35761498 -7 16 C-10.34192692 15.75546876 -11.60543557 15.39456443 -14 13 C-14.4375 10.625 -14.4375 10.625 -14 8 C-10.18166581 3.93532167 -5.07307814 2.07786207 0 0 Z " fill="#465C2F" transform="translate(228,169)"/>
<path d="M0 0 C3.21545446 4.82318169 5.06395984 9.01724505 4.875 14.875 C4 18 4 18 1 20 C-3.54054054 19.45945946 -3.54054054 19.45945946 -5 18 C-5.78744159 10.78178539 -3.56073752 6.20585682 0 0 Z " fill="#314E40" transform="translate(93,95)"/>
<path d="M0 0 C2.27349253 0.42346426 4.54376047 0.86426879 6.8125 1.3125 C8.07707031 1.55613281 9.34164062 1.79976562 10.64453125 2.05078125 C15.2269481 3.34708776 15.2269481 3.34708776 17 6 C16.75546876 9.34192692 16.39456443 10.60543557 14 13 C11.125 13.4375 11.125 13.4375 8 13 C4.20490198 9.42814304 2.17857636 4.67003336 0 0 Z " fill="#314F41" transform="translate(23,134)"/>
<path d="M0 0 C0.66 0 1.32 0 2 0 C2 0.66 2 1.32 2 2 C2.53625 2.226875 3.0725 2.45375 3.625 2.6875 C8.02561908 5.11942107 11.45514471 7.26327376 13 12.1875 C13 13.115625 13 14.04375 13 15 C11 17 11 17 8.0625 17.4375 C5 17 5 17 3.3828125 14.8671875 C1.8787073 11.74850609 1.30106962 9.10748733 0.8125 5.6875 C0.65394531 4.61886719 0.49539062 3.55023438 0.33203125 2.44921875 C0.22246094 1.64097656 0.11289062 0.83273438 0 0 Z " fill="#314E40" transform="translate(55,105)"/>
<path d="M0 0 C1.41343605 2.8268721 0.61046969 4.35324675 -0.1875 7.375 C-0.42855469 8.33148438 -0.66960937 9.28796875 -0.91796875 10.2734375 C-2.14000296 13.35278723 -3.41846411 14.94360544 -6 17 C-10.3 16.7 -10.3 16.7 -12 15 C-12.4375 12.25 -12.4375 12.25 -12 9 C-9.9875385 6.9875385 -8.31562007 5.55939279 -6 4 C-5.42765625 3.60425781 -4.8553125 3.20851563 -4.265625 2.80078125 C-2.858107 1.84567975 -1.43082599 0.91981671 0 0 Z " fill="#314E40" transform="translate(132,106)"/>
<path d="M0 0 C1.94045688 0.4241929 3.87731761 0.86485995 5.8125 1.3125 C7.43091797 1.67794922 7.43091797 1.67794922 9.08203125 2.05078125 C11.94991414 2.98370701 13.28505775 3.5500825 15 6 C14.6875 8.6875 14.6875 8.6875 14 11 C11.8125 11.8125 11.8125 11.8125 9 12 C6.4375 9.875 6.4375 9.875 4 7 C3.236875 6.113125 2.47375 5.22625 1.6875 4.3125 C0 2 0 2 0 0 Z " fill="#465C2F" transform="translate(80,171)"/>
<path d="M0 0 C0 2.64 0 5.28 0 8 C-4.95 9.485 -4.95 9.485 -10 11 C-10 8.36 -10 5.72 -10 3 C-8.52144705 2.49818809 -7.04213942 1.99859924 -5.5625 1.5 C-4.73878906 1.2215625 -3.91507812 0.943125 -3.06640625 0.65625 C-1 0 -1 0 0 0 Z " fill="#7B322C" transform="translate(128,79)"/>
<path d="M0 0 C1.48206495 0.254496 2.96068615 0.52911762 4.4375 0.8125 C5.67306641 1.03873047 5.67306641 1.03873047 6.93359375 1.26953125 C7.95646484 1.63111328 7.95646484 1.63111328 9 2 C9.33 2.99 9.66 3.98 10 5 C6.7 5 3.4 5 0 5 C0 3.35 0 1.7 0 0 Z " fill="#BDC4C6" transform="translate(164,182)"/>
<path d="M0 0 C0 1.65 0 3.3 0 5 C-2.64 5 -5.28 5 -8 5 C-8 3.68 -8 2.36 -8 1 C-5.29120665 -0.35439668 -2.99066732 -0.06501451 0 0 Z " fill="#D5D7D8" transform="translate(138,182)"/>
<path d="M0 0 C5.53846154 -0.36923077 5.53846154 -0.36923077 7.875 1.5 C8.24625 1.995 8.6175 2.49 9 3 C7.3125 4.1875 7.3125 4.1875 5 5 C2.25 3.75 2.25 3.75 0 2 C0 1.34 0 0.68 0 0 Z " fill="#BE4233" transform="translate(202,82)"/>
<path d="M0 0 C0 1.98 0 3.96 0 6 C-1.32 6 -2.64 6 -4 6 C-4 4.35 -4 2.7 -4 1 C-2 0 -2 0 0 0 Z " fill="#B9C0C3" transform="translate(140,78)"/>
<path d="M0 0 C0.66 0 1.32 0 2 0 C3.35015859 4.05047576 2.62084998 6.7920168 2 11 C1.67 11 1.34 11 1 11 C0.67 7.37 0.34 3.74 0 0 Z " fill="#2D3841" transform="translate(39,175)"/>
</svg>
