<?xml version="1.0" encoding="UTF-8"?>
<svg version="1.1" xmlns="http://www.w3.org/2000/svg" width="250" height="251">
<path d="M0 0 C82.5 0 165 0 250 0 C250 82.83 250 165.66 250 251 C167.5 251 85 251 0 251 C0 168.17 0 85.34 0 0 Z " fill="#5D1D49" transform="translate(0,0)"/>
<path d="M0 0 C1.41481529 -0.00912655 2.82962171 -0.01973858 4.24441528 -0.0317688 C7.20872012 -0.04962864 10.17194743 -0.04479341 13.13623047 -0.02490234 C16.92592226 -0.00194437 20.71188046 -0.04229188 24.50108147 -0.10073662 C27.4233442 -0.1375322 30.34471831 -0.13686285 33.26715469 -0.12546158 C34.6633744 -0.12515583 36.05965565 -0.13718979 37.45565414 -0.16204453 C48.39100689 -0.32928155 48.39100689 -0.32928155 51.93328857 2.63595581 C53.52197266 4.7890625 53.52197266 4.7890625 54.70132446 6.93310547 C56.500785 10.04333023 59.17595705 11.17749633 62.3203125 12.7421875 C63.403125 13.29648438 64.4859375 13.85078125 65.6015625 14.421875 C71.57733301 17.10517001 76.71844379 18.21109374 83.1953125 18.4921875 C83.93136719 18.53085938 84.66742188 18.56953125 85.42578125 18.609375 C87.22358656 18.70276748 89.02191358 18.7860246 90.8203125 18.8671875 C91.01141602 19.94387695 91.20251953 21.02056641 91.39941406 22.12988281 C93.51672962 34.04648863 95.65564869 45.95908891 97.8203125 57.8671875 C98.130896 59.57769287 98.130896 59.57769287 98.44775391 61.32275391 C102.5486443 83.63949735 108.65177174 104.53010599 118.8203125 124.8671875 C52.1603125 124.8671875 -14.4996875 124.8671875 -83.1796875 124.8671875 C-80.5396875 119.5871875 -77.8996875 114.3071875 -75.1796875 108.8671875 C-63.75449181 80.65394916 -59.32595558 48.85113423 -55.1796875 18.8671875 C-53.67341797 18.84591797 -53.67341797 18.84591797 -52.13671875 18.82421875 C-39.73197025 18.46592034 -27.24457328 16.14239545 -18.1796875 6.8671875 C-17.77741943 5.85954346 -17.37515137 4.85189941 -16.96069336 3.8137207 C-13.39535666 -1.5276423 -5.71724113 -0.032083 0 0 Z " fill="#D62379" transform="translate(106.1796875,89.1328125)"/>
<path d="M0 0 C82.5 0 165 0 250 0 C250 82.83 250 165.66 250 251 C167.5 251 85 251 0 251 C0 213.38 0 175.76 0 137 C1.98519505 140.97039009 2.56548656 143.7809724 3.25 148.125 C6.07626794 164.20287154 11.64941756 181.27131691 21.796875 194.30859375 C23 196 23 196 22.5625 198.6875 C18.73746358 206.79657722 13.08393629 214.43647414 7 221 C6.34 221 5.68 221 5 221 C5 221.66 5 222.32 5 223 C6.29099609 222.9685791 7.58199219 222.9371582 8.91210938 222.90478516 C13.72760811 222.79572354 18.54299895 222.72713569 23.359375 222.67041016 C25.43898918 222.64034111 27.51847762 222.59947384 29.59765625 222.54736328 C32.5966705 222.4741115 35.59400062 222.44044472 38.59375 222.4140625 C39.51490601 222.38309479 40.43606201 222.35212708 41.38513184 222.32022095 C48.37435807 222.31662287 51.85073392 224.44724262 57 229 C67.20653931 235.63959429 77.88616403 240.18119183 89.5 243.6875 C90.16346436 243.89004395 90.82692871 244.09258789 91.51049805 244.30126953 C101.88158707 247.30596586 112.1028218 248.34361545 122.875 248.25 C124.01831787 248.24250732 125.16163574 248.23501465 126.33959961 248.22729492 C151.92256193 247.90133932 176.2537364 240.10753555 197 225 C200.11307936 222.92461376 200.76348195 222.75227849 204.2878418 222.77294922 C205.57884041 222.77317581 205.57884041 222.77317581 206.8959198 222.77340698 C208.28355278 222.78889084 208.28355278 222.78889084 209.69921875 222.8046875 C211.12449638 222.80893234 211.12449638 222.80893234 212.5785675 222.81326294 C215.61500615 222.82446285 218.65115042 222.84956712 221.6875 222.875 C223.74543845 222.88503004 225.80338152 222.89415585 227.86132812 222.90234375 C232.9076656 222.92440158 237.95378288 222.95893018 243 223 C242.46093018 222.32743164 241.92186035 221.65486328 241.36645508 220.96191406 C240.29754028 219.62725098 240.29754028 219.62725098 239.20703125 218.265625 C238.15092651 216.94739746 238.15092651 216.94739746 237.07348633 215.60253906 C225.78556326 201.43448773 225.78556326 201.43448773 226.19921875 196.73828125 C227.20802348 193.28866116 228.90235411 190.42452081 230.75 187.375 C237.56766715 175.70317812 241.82547485 164.11387911 245 151 C245.18981445 150.24783203 245.37962891 149.49566406 245.57519531 148.72070312 C247.25875164 141.37810864 247.38454208 134.1355712 247.375 126.625 C247.37512085 125.96792053 247.3752417 125.31084106 247.37536621 124.6338501 C247.34510153 113.03156901 246.09209471 102.18123532 243 91 C242.566875 89.35644531 242.566875 89.35644531 242.125 87.6796875 C234.33668074 61.60272568 215.60745024 35.59779486 191.703125 22.14453125 C188.11986027 19.30173886 187.86654401 17.19926404 187.125 12.75 C186.78855469 10.85507812 186.78855469 10.85507812 186.4453125 8.921875 C186.29835937 7.95765625 186.15140625 6.9934375 186 6 C184.68 8.97 183.36 11.94 182 15 C177.37238362 13.50722052 172.85081413 11.96246808 168.375 10.0625 C139.56477502 -1.5416184 105.57566434 -1.0770774 77 11 C74.89771986 12.04337476 72.81835771 13.11411012 70.75512695 14.23266602 C69 15 69 15 66 15 C65.01 11.7 64.02 8.4 63 5 C62.34 5 61.68 5 61 5 C60.95101562 5.73605469 60.90203125 6.47210938 60.8515625 7.23046875 C60.77679688 8.20628906 60.70203125 9.18210937 60.625 10.1875 C60.55539063 11.15042969 60.48578125 12.11335937 60.4140625 13.10546875 C59.74344385 17.79347271 59.08022739 20.15003567 55.26953125 23.1484375 C54.12133546 23.89702606 52.96867501 24.63879503 51.8125 25.375 C38.46373809 34.42985207 27.49829606 46.32567711 19 60 C18.64357422 60.57121582 18.28714844 61.14243164 17.91992188 61.73095703 C7.98774419 78.04222673 3.25795317 96.18372362 1 115 C0.67 115 0.34 115 0 115 C0 77.05 0 39.1 0 0 Z " fill="#E0E0E0" transform="translate(0,0)"/>
<path d="M0 0 C1.14240002 3.42720007 0.83197206 5.11054083 0.1875 8.625 C0.01605469 9.60726562 -0.15539063 10.58953125 -0.33203125 11.6015625 C-0.66267578 12.78878906 -0.66267578 12.78878906 -1 14 C-3 15 -3 15 -6 14.9375 C-9.11767214 14.65618869 -9.11767214 14.65618869 -11 17 C-10.67958603 19.60280568 -10.67958603 19.60280568 -10 22 C-8.02 22.66 -6.04 23.32 -4 24 C-3.34293656 27.7781148 -3.22102236 29.88658129 -5.46484375 33.09375 C-6.11582031 33.8465625 -6.76679687 34.599375 -7.4375 35.375 C-24.6864642 55.59054138 -28.60741316 81.23067006 -27 107 C-26.36214617 111.59663641 -25.25440322 115.95780958 -23.97265625 120.4140625 C-22.89855331 124.37400828 -22.27045577 127.90452692 -22 132 C-22.66 132.99 -23.32 133.98 -24 135 C-24.495 133.02 -24.495 133.02 -25 131 C-25.66 131 -26.32 131 -27 131 C-27 130.34 -27 129.68 -27 129 C-30.48599332 129.45913678 -30.48599332 129.45913678 -34 131 C-35.63000774 134.16132171 -35.63000774 134.16132171 -36 138 C-34.97559922 140.69379464 -34.01870209 142.76402029 -32.5625 145.1875 C-28.9330259 151.41421245 -28.9330259 151.41421245 -29.27734375 154.42578125 C-29.51582031 154.94527344 -29.75429688 155.46476563 -30 156 C-46.04937521 130.92878665 -51.77718264 98.67775349 -45.87255859 69.37548828 C-45.07864152 66.18345858 -44.09575662 63.1006859 -43 60 C-42.78037598 59.36545898 -42.56075195 58.73091797 -42.33447266 58.07714844 C-34.08015075 34.6285652 -19.65301165 15.1320717 0 0 Z " fill="#7A90A7" transform="translate(56,31)"/>
<path d="M0 0 C5.87537564 4.40653173 11.30045174 9.56894753 14.421875 16.33203125 C14.13971702 20.0941376 12.85630629 22.74595303 11.421875 26.33203125 C-7.388125 26.33203125 -26.198125 26.33203125 -45.578125 26.33203125 C-52.703125 12.08203125 -52.703125 12.08203125 -55.453125 5.83203125 C-55.75992188 5.1565625 -56.06671875 4.48109375 -56.3828125 3.78515625 C-57.90405668 0.33519176 -58.578125 -1.83051173 -58.578125 -5.66796875 C-38.49685853 -11.64962259 -18.33471972 -11.86200806 0 0 Z " fill="#922F63" transform="translate(141.578125,55.66796875)"/>
<path d="M0 0 C-0.95167821 2.62758953 -1.91097121 5.25194493 -2.875 7.875 C-3.14441406 8.62136719 -3.41382813 9.36773437 -3.69140625 10.13671875 C-5.7734375 15.7734375 -5.7734375 15.7734375 -8 18 C-8.90621094 17.60167969 -9.81242187 17.20335938 -10.74609375 16.79296875 C-24.70069061 10.70271266 -37.24776409 6.60185715 -52.625 6.6875 C-53.67534424 6.69241455 -54.72568848 6.6973291 -55.80786133 6.70239258 C-69.78449953 6.91109496 -83.79598297 9.12324205 -96.109375 16.21484375 C-98 17 -98 17 -100.078125 17.0546875 C-103.18413123 15.35017189 -103.73442428 12.32502161 -104.75 9.125 C-104.97042969 8.48691406 -105.19085938 7.84882813 -105.41796875 7.19140625 C-106.37610794 4.34079337 -107 2.0256129 -107 -1 C-100.26720474 -4.4193522 -93.3730956 -6.97999088 -86.1875 -9.25 C-85.37563232 -9.50797363 -84.56376465 -9.76594727 -83.72729492 -10.03173828 C-57.74405149 -18.07143254 -23.30237369 -14.17739687 0 0 Z " fill="#B2D4F4" transform="translate(178,23)"/>
<path d="M0 0 C22.22133828 12.34518794 37.31086316 38.40558657 44.14160156 62.09643555 C50.98032361 86.59687899 48.394075 109.9786396 41 134 C40.01 134 39.02 134 38 134 C38.14622803 133.46109131 38.29245605 132.92218262 38.44311523 132.36694336 C39.11217888 129.89159364 39.77487626 127.41458103 40.4375 124.9375 C40.66759766 124.08994141 40.89769531 123.24238281 41.13476562 122.36914062 C43.00536 115.3476342 44.14241186 108.67057119 44.125 101.375 C44.12757813 100.28960937 44.13015625 99.20421875 44.1328125 98.0859375 C44.00969487 95.22526319 43.83595335 92.73846786 43 90 C40.08235 88.0549 38.37462715 87.54723683 35 87 C35 87.66 35 88.32 35 89 C34.34 89 33.68 89 33 89 C33 89.66 33 90.32 33 91 C32.34 91 31.68 91 31 91 C30.96261719 90.35675781 30.92523438 89.71351562 30.88671875 89.05078125 C29.28053102 66.97357349 21.14761324 47.16296604 7.1496582 30.17358398 C4 26.30036401 4 26.30036401 4 23 C6.31 22.34 8.62 21.68 11 21 C11 18.69 11 16.38 11 14 C7.65747276 13.92572162 5.1964086 13.93453047 2 15 C1.66223316 13.2508503 1.32996329 11.50063855 1 9.75 C0.814375 8.77546875 0.62875 7.8009375 0.4375 6.796875 C0 4 0 4 0 0 Z " fill="#8EA9C3" transform="translate(192,32)"/>
<path d="M0 0 C0.66 0.33 1.32 0.66 2 1 C2.65138245 3.28610229 2.65138245 3.28610229 3.22094727 6.35498047 C3.54622154 8.07344681 3.54622154 8.07344681 3.87806702 9.82662964 C4.10521896 11.07751373 4.33237091 12.32839783 4.56640625 13.6171875 C4.80536118 14.89925079 5.0443161 16.18131409 5.29051208 17.50222778 C5.79770274 20.22674379 6.29889887 22.9522734 6.7956543 25.67871094 C7.42733753 29.14440252 8.07092167 32.60774141 8.71882725 36.07043266 C9.34017477 39.39751048 9.95307864 42.72612164 10.56640625 46.0546875 C10.79558243 47.28532928 11.02475861 48.51597107 11.26087952 49.78390503 C12.54286954 56.84583071 13.50216231 63.83864273 14 71 C1.82327133 71.3927977 -9.42080924 69.18851355 -19.12890625 61.26171875 C-22.10794938 58.14443696 -22.10794938 58.14443696 -23 56 C-22.53024597 51.10609085 -20.87999856 46.9697791 -18.8671875 42.5390625 C-18.55226349 41.83083344 -18.23733948 41.12260437 -17.91287231 40.39291382 C-16.90673575 38.13397876 -15.89116662 35.87943823 -14.875 33.625 C-14.21549502 32.15003041 -13.55663556 30.67477201 -12.8984375 29.19921875 C-11.91660096 26.9988904 -10.9340896 24.79888471 -9.94866943 22.60015869 C-6.58270736 15.08847742 -3.28656418 7.54668825 0 0 Z " fill="#D8D6D7" transform="translate(182,34)"/>
<path d="M0 0 C2.237868 2.237868 3.08901118 4.11676391 4.375 7 C4.77460937 7.886875 5.17421875 8.77375 5.5859375 9.6875 C6.67216555 12.23203421 7.69552822 14.77868894 8.69921875 17.35546875 C10.50595044 21.90983159 12.50945201 26.35240601 14.55859375 30.80078125 C15.52304883 32.91712651 16.48574333 35.0342648 17.44799805 37.15161133 C18.11323468 38.6043647 18.78556607 40.05388817 19.46459961 41.50024414 C20.45375406 43.61260731 21.41462511 45.73595789 22.37109375 47.86328125 C22.6802623 48.50606522 22.98943085 49.14884918 23.30796814 49.81111145 C24.11889648 51.65356445 24.11889648 51.65356445 25 55 C21.87857255 62.14644217 15.33480153 66.33414853 8.3203125 69.1875 C1.46067187 71.58952904 -4.75212763 72.23009119 -12 72 C-12.23400652 65.3722681 -11.34632557 59.28101627 -10.13671875 52.7734375 C-9.94406937 51.70815826 -9.75141998 50.64287903 -9.55293274 49.5453186 C-9.1450841 47.29735775 -8.73390109 45.04999959 -8.31958008 42.80322266 C-7.6935537 39.40783355 -7.0772818 36.01079296 -6.46289062 32.61328125 C-4.48001157 21.70308813 -2.44929319 10.81679904 0 0 Z " fill="#D9D7D8" transform="translate(65,33)"/>
<path d="M0 0 C5.28 0 10.56 0 16 0 C16.66 1.32 17.32 2.64 18 4 C19.98 4 21.96 4 24 4 C24.66 2.68 25.32 1.36 26 0 C49.43 0 72.86 0 97 0 C97.99 1.98 97.99 1.98 99 4 C100.98 4 102.96 4 105 4 C105.66 2.68 106.32 1.36 107 0 C111.95 0 116.9 0 122 0 C108.3035488 10.95716096 87.56194151 17.85485999 70 18 C68.65882955 18.04880733 67.3176859 18.09835405 65.9765625 18.1484375 C43.0660418 18.78588654 18.63907338 13.97930504 0 0 Z " fill="#475360" transform="translate(63,223)"/>
<path d="M0 0 C11.47580788 10.39995089 20.11698621 26.01156678 24 41 C24.27585938 42.00417969 24.55171875 43.00835937 24.8359375 44.04296875 C26.65310438 51.15325935 27.39651825 57.67175537 27 65 C27.66 65 28.32 65 29 65 C29 64.34 29 63.68 29 63 C29.66 63 30.32 63 31 63 C31 62.34 31 61.68 31 61 C33.92325122 60.75639573 35.62847443 60.80391706 38.25 62.1875 C42.07956644 66.15383667 41.32276 72.76905281 41.29296875 77.9765625 C40.83327536 87.09109234 38.82058774 96.80597027 35.8046875 105.41015625 C34.70068309 108.07451008 34.70068309 108.07451008 36 111 C35.28735352 112.90112305 35.28735352 112.90112305 34.12890625 115.01171875 C33.71962891 115.76904297 33.31035156 116.52636719 32.88867188 117.30664062 C32.45103516 118.09232422 32.01339844 118.87800781 31.5625 119.6875 C30.9118457 120.88342773 30.9118457 120.88342773 30.24804688 122.10351562 C29.17425237 124.07410554 28.09135818 126.03909927 27 128 C26.34 128 25.68 128 25 128 C23.79151386 124.13123123 22.61200086 120.25420855 21.4375 116.375 C21.09525391 115.28058594 20.75300781 114.18617188 20.40039062 113.05859375 C20.08134766 111.99511719 19.76230469 110.93164062 19.43359375 109.8359375 C19.13509521 108.86188965 18.83659668 107.8878418 18.52905273 106.88427734 C17.68211127 102.26694162 18.74382504 98.35372826 20.4375 94.0625 C27.94318962 72.09732008 24.60882695 46.75170392 15 26 C11.82589914 19.56780172 8.37883929 13.29668808 3.5625 7.9375 C1.07283742 5.08349655 0.22535882 3.71842054 0 0 Z " fill="#6F8498" transform="translate(196,58)"/>
<path d="M0 0 C-1.45115322 4.57888152 -3.20581904 8.97649435 -5.125 13.375 C-5.54072266 14.33599609 -5.54072266 14.33599609 -5.96484375 15.31640625 C-6.64100385 16.87856925 -7.32018707 18.43942315 -8 20 C-11.49233887 18.51004053 -13.64675262 16.48745548 -16.3125 13.8125 C-27.45613935 3.59063879 -42.9065213 -1.59705696 -57.875 -1.375 C-58.83664063 -1.36847412 -59.79828125 -1.36194824 -60.7890625 -1.35522461 C-66.96374816 -1.23892774 -72.64068881 -0.62252655 -78.5625 1.24609375 C-81.35086701 2.10852137 -84.11659338 2.56832721 -87 3 C-87 2.01 -87 1.02 -87 0 C-59.09392721 -14.1177434 -27.88974452 -14.4636781 0 0 Z " fill="#922F63" transform="translate(168,46)"/>
<path d="M0 0 C4.93037372 6.21655817 4.46521661 12.32392595 4 20 C2.83222439 27.59054145 -1.28614801 33.00942041 -7 38 C-12.81284875 41.80675126 -20.30022367 42.09904467 -27 41 C-32.05861452 38.70804709 -35.95416706 35.66837945 -39 31 C-39 30.34 -39 29.68 -39 29 C-37.7625 28.34257812 -37.7625 28.34257812 -36.5 27.671875 C-22.98070748 20.24833491 -10.41764381 11.45940819 0 0 Z " fill="#FEF9FB" transform="translate(185,141)"/>
<path d="M0 0 C3.86563716 1.59333054 6.33843097 4.10408769 9.3125 7 C18.36321667 15.55791914 28.94220205 22.3062829 40 28 C39.27195589 32.36826467 37.22906801 33.99403038 33.875 36.671875 C28.03564299 40.80808622 20.90908331 40.9870119 14 40 C5.72504883 36.68750052 1.39954208 29.90815425 -2.375 22.1875 C-3.9165122 14.32578778 -3.8700222 7.0950407 0 0 Z " fill="#FEFAFC" transform="translate(62,142)"/>
<path d="M0 0 C1.14240002 3.42720007 0.83197206 5.11054083 0.1875 8.625 C0.01605469 9.60726562 -0.15539063 10.58953125 -0.33203125 11.6015625 C-0.66267578 12.78878906 -0.66267578 12.78878906 -1 14 C-3 15 -3 15 -6 14.9375 C-9.11767214 14.65618869 -9.11767214 14.65618869 -11 17 C-10.67958603 19.60280568 -10.67958603 19.60280568 -10 22 C-8.02 22.66 -6.04 23.32 -4 24 C-4.5190724 27.8086937 -5.25343294 29.64858426 -8 32.3125 C-13.60453102 38.33649696 -17.1442575 45.79561946 -21 53 C-23.46800047 51.84826645 -25.04783565 50.95216435 -27 49 C-30.34264111 48.45795009 -31.68323751 48.79159078 -34.53515625 50.66796875 C-38.92321026 54.81958245 -39.60907499 60.2758086 -41 66 C-41.30164063 67.16917969 -41.60328125 68.33835937 -41.9140625 69.54296875 C-45.09520619 84.12568818 -44.27427715 99.15949612 -44 114 C-46 113 -46 113 -47 110 C-47.94802648 93.39580658 -48.59432224 75.83037314 -43 60 C-42.78037598 59.36545898 -42.56075195 58.73091797 -42.33447266 58.07714844 C-34.08015075 34.6285652 -19.65301165 15.1320717 0 0 Z " fill="#98B5D1" transform="translate(56,31)"/>
<path d="M0 0 C-0.66 0.66 -1.32 1.32 -2 2 C-2.825 1.484375 -3.65 0.96875 -4.5 0.4375 C-9.06792071 -1.43861029 -11.22559514 -1.1140278 -16 0 C-18.29013653 3.4352048 -18.17842973 4.985331 -18 9 C-22.90389663 9.38714973 -26.75595391 8.29677649 -31.33984375 6.75390625 C-38.22776756 4.80182212 -45.32989052 4.7195847 -52.4375 4.4375 C-53.96407227 4.37272461 -53.96407227 4.37272461 -55.52148438 4.30664062 C-58.01421028 4.20131418 -60.50702338 4.09918328 -63 4 C-63 3.67 -63 3.34 -63 3 C-58.71 2.34 -54.42 1.68 -50 1 C-49.67 -1.31 -49.34 -3.62 -49 -6 C-50.98 -6.66 -52.96 -7.32 -55 -8 C-55 -8.33 -55 -8.66 -55 -9 C-53.35 -9.33 -51.7 -9.66 -50 -10 C-67.56815985 -10.63841227 -85.48010046 -8.51923763 -101.30078125 -0.28125 C-102.19152344 0.1415625 -103.08226563 0.564375 -104 1 C-104.66 0.67 -105.32 0.34 -106 0 C-102.10443338 -4.88031953 -94.86614396 -6.32679936 -89.14794922 -8.27001953 C-87.23875905 -8.91885775 -85.33927832 -9.59610976 -83.44140625 -10.27734375 C-57.49837487 -18.26200072 -23.27728187 -14.16213076 0 0 Z " fill="#B1D2F2" transform="translate(178,23)"/>
<path d="M0 0 C-0.43338746 1.35548844 -0.87197995 2.70931276 -1.3125 4.0625 C-1.55613281 4.81660156 -1.79976563 5.57070313 -2.05078125 6.34765625 C-3.2271362 9.63467276 -4.60211842 12.80092647 -6 16 C-6.53254395 15.7733667 -7.06508789 15.5467334 -7.61376953 15.31323242 C-33.68830014 4.30716576 -60.08533203 0.39455119 -87.25 10.5625 C-89.97696611 11.67335802 -92.61740541 12.79725181 -95.21875 14.17578125 C-97.5105654 15.23624846 -98.67280563 14.83114085 -101 14 C-100 12 -100 12 -97.30859375 11.02734375 C-96.21675781 10.68832031 -95.12492187 10.34929688 -94 10 C-92.01894555 9.19211373 -90.03985484 8.37939949 -88.0625 7.5625 C-68.17895042 0.0281505 -45.51480755 -0.55552913 -25 5 C-23.35430505 5.39640827 -21.70849682 5.79234705 -20.0625 6.1875 C-19.051875 6.455625 -18.04125 6.72375 -17 7 C-17.226875 6.0925 -17.45375 5.185 -17.6875 4.25 C-18 1 -18 1 -16.9375 -1.3125 C-11.49849936 -6.04969411 -5.3643988 -3.57626586 0 0 Z " fill="#5E6C7F" transform="translate(177,25)"/>
<path d="M0 0 C11.79494824 12.66864811 14.18283195 32.01789307 14.125 48.5 C14.12886719 49.60214844 14.13273438 50.70429687 14.13671875 51.83984375 C14.1233961 62.93760743 14.1233961 62.93760743 13 68 C12.01 68.495 12.01 68.495 11 69 C9.62231484 64.57859182 10.02020123 60.25901566 10.16015625 55.6796875 C10.2882436 52.84580291 10.2882436 52.84580291 8 51 C7.34427608 48.05683655 6.79396981 45.15950303 6.30859375 42.1875 C6.158423 41.30400879 6.00825226 40.42051758 5.85353088 39.51025391 C5.53633925 37.63458904 5.22304806 35.75826108 4.91333008 33.88134766 C4.44375092 31.03785187 3.96225213 28.19658649 3.47851562 25.35546875 C3.17116087 23.52876585 2.86449905 21.70194619 2.55859375 19.875 C2.41691269 19.03606201 2.27523163 18.19712402 2.1292572 17.33276367 C1.18323838 11.57201349 0.51801386 5.81448258 0 0 Z " fill="#902E62" transform="translate(200,77)"/>
<path d="M0 0 C11.51364333 10.43423927 20.04499202 25.99733638 24 41 C24.27585938 41.88816406 24.55171875 42.77632812 24.8359375 43.69140625 C29.75738952 61.36799766 28.88428734 86.23701071 21 103 C22.6396875 102.690625 22.6396875 102.690625 24.3125 102.375 C28 102 28 102 31 104 C31.375 107.5 31.375 107.5 31 111 C28 113 28 113 25.5 112.6875 C23.65095738 112.17901328 21.81927613 111.60642538 20 111 C17.48739206 104.59284976 18.14847026 100.31061688 20.4375 94.0625 C27.94318962 72.09732008 24.60882695 46.75170392 15 26 C11.82589914 19.56780172 8.37883929 13.29668808 3.5625 7.9375 C1.07283742 5.08349655 0.22535882 3.71842054 0 0 Z " fill="#5A6679" transform="translate(196,58)"/>
<path d="M0 0 C1.19481045 3.55061502 0.83379544 6.26341524 0.22729492 9.93017578 C0.03346725 11.12466339 -0.16036041 12.319151 -0.36006165 13.54983521 C-0.57768661 14.83534271 -0.79531158 16.12085022 -1.01953125 17.4453125 C-1.24084627 18.77994052 -1.46167983 20.11464845 -1.68205261 21.44943237 C-2.14515142 24.24275214 -2.61408966 27.03501209 -3.0871582 29.82666016 C-3.69343644 33.40727768 -4.28508782 36.99013085 -4.87241077 40.57390022 C-5.32551501 43.32862896 -5.78632333 46.08202559 -6.24948692 48.83507919 C-6.57840699 50.79867629 -6.90078991 52.76336477 -7.22309875 54.72805786 C-7.52802498 56.51033279 -7.52802498 56.51033279 -7.83911133 58.32861328 C-8.01533524 59.37800079 -8.19155914 60.42738831 -8.37312317 61.50857544 C-9 64 -9 64 -11 66 C-15.41844095 42.1755529 -11.4529418 20.90439863 0 0 Z " fill="#902E62" transform="translate(47,79)"/>
<path d="M0 0 C4.8657051 0.55714181 8.73782118 2.13543539 13.0625 4.3125 C40.47688842 17.48913647 71.09840838 18.16595768 99.69140625 8.41918945 C105.27700108 6.41124292 110.4520604 3.93964088 115.6171875 1.00390625 C118.29078275 -0.12251011 119.34431063 -0.04374768 122 1 C112.23314687 6.58303803 102.8081944 10.82750544 92 14 C91.01 14.30808594 90.02 14.61617187 89 14.93359375 C82.66723923 16.81363211 76.59492638 17.73329342 70 18 C69.35675781 18.02723145 68.71351563 18.05446289 68.05078125 18.08251953 C45.07541221 18.92657768 18.36589394 14.96307602 0 0 Z " fill="#586072" transform="translate(63,223)"/>
<path d="M0 0 C0.33 0.99 0.66 1.98 1 3 C-0.3359375 4.8828125 -0.3359375 4.8828125 -2.375 7.125 C-19.45592619 27.73578484 -23.62675108 52.92065315 -22 79 C-21.36214617 83.59663641 -20.25440322 87.95780958 -18.97265625 92.4140625 C-17.91522958 96.31252707 -17.42063616 99.98845935 -17 104 C-19.91825321 102.54087339 -20.26344816 100.26898555 -21.31079102 97.32470703 C-24.53665186 87.37145123 -25.56640534 78.08805127 -25.5625 67.625 C-25.56459473 66.39112549 -25.56668945 65.15725098 -25.56884766 63.88598633 C-25.1550076 40.56625457 -16.60547004 16.693797 0 0 Z " fill="#596375" transform="translate(51,59)"/>
<path d="M0 0 C-0.45445964 1.41791408 -0.91374944 2.83428046 -1.375 4.25 C-1.75785156 5.43335938 -1.75785156 5.43335938 -2.1484375 6.640625 C-2.95173667 8.86627958 -3.89711662 10.90931672 -5 13 C-8.66172475 12.37321829 -11.8818995 11.35548154 -15.3125 9.9375 C-16.63701172 9.39416016 -16.63701172 9.39416016 -17.98828125 8.83984375 C-18.65214844 8.56269531 -19.31601563 8.28554688 -20 8 C-19.01 7.67 -18.02 7.34 -17 7 C-17.226875 6.0925 -17.45375 5.185 -17.6875 4.25 C-18 1 -18 1 -16.9375 -1.3125 C-11.49849936 -6.04969411 -5.3643988 -3.57626586 0 0 Z " fill="#A7C6E5" transform="translate(177,25)"/>
<path d="M0 0 C13.55479241 7.53044023 24.11765668 20.92854898 32.125 33.9375 C32.51582764 34.56430664 32.90665527 35.19111328 33.30932617 35.83691406 C35.39001123 39.35567096 36.48315894 41.89314899 36 46 C33.89305326 43.29106847 32.12416227 40.54814397 30.4375 37.5625 C27.8452365 33.19008562 24.97005232 29.14725968 21.875 25.125 C21.45532959 24.57787354 21.03565918 24.03074707 20.60327148 23.46704102 C16.60311581 17.85968978 16.60311581 17.85968978 10.96484375 14.35546875 C7.63024064 14.07919142 5.20512387 13.93162538 2 15 C1.66223316 13.2508503 1.32996329 11.50063855 1 9.75 C0.814375 8.77546875 0.62875 7.8009375 0.4375 6.796875 C0 4 0 4 0 0 Z " fill="#C4C7D2" transform="translate(192,32)"/>
<path d="M0 0 C0.94875 0.04125 1.8975 0.0825 2.875 0.125 C2.875 0.785 2.875 1.445 2.875 2.125 C3.535 2.125 4.195 2.125 4.875 2.125 C6.33132472 4.55716135 6.98130037 6.38995519 6.57128906 9.22509766 C5.94981604 11.65537352 5.24831555 14.04326816 4.5 16.4375 C4.2525 17.27345703 4.005 18.10941406 3.75 18.97070312 C3.13916505 21.02639768 2.5089633 23.07631994 1.875 25.125 C-2.28856874 20.17517793 -7.24722866 13.71264895 -7.06640625 6.92578125 C-5.88508886 2.55765416 -4.67208491 0.1868834 0 0 Z " fill="#617082" transform="translate(26.125,159.875)"/>
<path d="M0 0 C0 0.66 0 1.32 0 2 C-0.75917725 1.98428955 -1.51835449 1.9685791 -2.30053711 1.95239258 C-23.35058781 1.57493461 -44.14852295 1.74597645 -63.30078125 11.71875 C-64.19152344 12.1415625 -65.08226563 12.564375 -66 13 C-66.66 12.67 -67.32 12.34 -68 12 C-64.10443338 7.11968047 -56.86614396 5.67320064 -51.14794922 3.72998047 C-49.23875905 3.08114225 -47.33927832 2.40389024 -45.44140625 1.72265625 C-32.93574078 -2.12629446 -12.63600637 -4.21200212 0 0 Z " fill="#E7E4EC" transform="translate(140,11)"/>
<path d="M0 0 C6.49801906 9.7470286 3.95151335 27.49041784 1.75 38.6875 C0.16273526 45.87955602 -1.8337507 52.96243883 -4 60 C-4.99 60 -5.98 60 -7 60 C-6.78065796 59.19163696 -6.78065796 59.19163696 -6.55688477 58.36694336 C-5.88782112 55.89159364 -5.22512374 53.41458103 -4.5625 50.9375 C-4.33240234 50.08994141 -4.10230469 49.24238281 -3.86523438 48.36914062 C-1.77570474 40.52583373 -0.84724017 33.16505523 -0.9375 25.0625 C-0.94201172 24.28326172 -0.94652344 23.50402344 -0.95117188 22.70117188 C-0.96283092 20.80074732 -0.98076123 18.90036294 -1 17 C-0.34 17 0.32 17 1 17 C0.835 16.236875 0.67 15.47375 0.5 14.6875 C-0.16562149 9.77854151 -0.07920078 4.94564886 0 0 Z " fill="#8A93A2" transform="translate(237,106)"/>
<path d="M0 0 C0.66 0.33 1.32 0.66 2 1 C2 2.85463477 1.96536254 4.71006788 1.875 6.5625 C1.73650326 9.18314627 1.73650326 9.18314627 4 11 C7.59679066 10.67673447 7.59679066 10.67673447 11 10 C11.33 10.66 11.66 11.32 12 12 C10.23494565 12.86604534 8.46271926 13.71748642 6.6875 14.5625 C5.70136719 15.03816406 4.71523437 15.51382813 3.69921875 16.00390625 C1 17 1 17 -2 16 C-3.19630944 13.64522059 -4.21952671 11.38252884 -5.1875 8.9375 C-5.46013672 8.27427734 -5.73277344 7.61105469 -6.01367188 6.92773438 C-6.6856086 5.28915183 -7.34409628 3.64506597 -8 2 C-6.68 2 -5.36 2 -4 2 C-3.29875 1.649375 -2.5975 1.29875 -1.875 0.9375 C-0.946875 0.4734375 -0.946875 0.4734375 0 0 Z " fill="#ABC9E7" transform="translate(78,21)"/>
<path d="M0 0 C2.1786779 3.91669487 1.92588777 5.86806724 1.125 10.3125 C-0.24568674 19.01282145 -0.17310998 27.71893112 -0.125 36.5 C-0.1212738 37.21346588 -0.11754761 37.92693176 -0.1137085 38.66201782 C-0.08924806 42.77485734 -0.05036151 46.88740143 0 51 C-2 50 -2 50 -3 47 C-3.23118462 42.48384339 -3.2284383 37.96494178 -3.24023438 33.44360352 C-3.24980096 31.23348286 -3.28076357 29.02434995 -3.3125 26.81445312 C-3.38030627 17.45836999 -2.39573433 9.09602149 0 0 Z " fill="#9CA5B1" transform="translate(12,94)"/>
<path d="M0 0 C0.94875 0.04125 1.8975 0.0825 2.875 0.125 C2.875 0.785 2.875 1.445 2.875 2.125 C3.535 2.125 4.195 2.125 4.875 2.125 C5 5.5 5 5.5 4.875 9.125 C4.215 9.785 3.555 10.445 2.875 11.125 C-3.70192308 10.54807692 -3.70192308 10.54807692 -5.125 9.125 C-5.3125 5.6875 -5.3125 5.6875 -5.125 2.125 C-3.125 0.125 -3.125 0.125 0 0 Z " fill="#383F48" transform="translate(26.125,159.875)"/>
<path d="M0 0 C3.19004073 2.57347824 3.74121891 5.08562749 4.6875 9 C6.37710688 15.29164896 8.5806037 21.19207686 11.125 27.1875 C11.47393311 28.01314453 11.82286621 28.83878906 12.18237305 29.68945312 C13.61773489 33.02444666 14.97690553 35.96535829 17 39 C16.625 41.1875 16.625 41.1875 16 43 C8.25644523 30.90355941 0 14.66544338 0 0 Z " fill="#8B8F9D" transform="translate(10,144)"/>
<path d="M0 0 C1.44441346 2.29406843 2.04943036 3.54894795 1.75 6.28125 C0.87884892 9.43917267 -0.44959847 11.96418453 -2.0625 14.8125 C-2.61035156 15.78832031 -3.15820312 16.76414063 -3.72265625 17.76953125 C-4.14417969 18.50558594 -4.56570312 19.24164063 -5 20 C-5.66 20 -6.32 20 -7 20 C-7.50471197 18.23050388 -8.00360685 16.45934777 -8.5 14.6875 C-8.7784375 13.70136719 -9.056875 12.71523437 -9.34375 11.69921875 C-10 9 -10 9 -10 6 C-8.88625 6.185625 -7.7725 6.37125 -6.625 6.5625 C-3.17431139 7.31680657 -3.17431139 7.31680657 -1 6 C-0.34227572 2.97065509 -0.34227572 2.97065509 0 0 Z " fill="#617183" transform="translate(227,163)"/>
<path d="M0 0 C2.5625 0.3125 2.5625 0.3125 4.375 1.5 C5.98775784 3.96157776 5.9959014 5.42315736 5.5625 8.3125 C4.375 10.125 4.375 10.125 2.5625 11.3125 C0.0625 11.75 0.0625 11.75 -2.4375 11.3125 C-4.3125 9.625 -4.3125 9.625 -5.4375 7.3125 C-5.14609088 3.23277231 -4.43505664 0.56859701 0 0 Z " fill="#5C5871" transform="translate(164.4375,21.6875)"/>
<path d="M0 0 C0.66 0.33 1.32 0.66 2 1 C1.03900391 1.85271484 1.03900391 1.85271484 0.05859375 2.72265625 C-2.64175412 5.13324995 -5.32497045 7.56135009 -8 10 C-8.61746094 10.56074219 -9.23492187 11.12148438 -9.87109375 11.69921875 C-15.63377033 17.18550796 -20.25062141 23.64519766 -25 30 C-25.33 29.01 -25.66 28.02 -26 27 C-20.73777719 17.64493722 -10.52344283 3.50781428 0 0 Z " fill="#CECDD8" transform="translate(53,35)"/>
<path d="M0 0 C2.4375 0.75 2.4375 0.75 4.4375 2.75 C3.98295455 8.20454545 3.98295455 8.20454545 1.4375 10.75 C-1 11.125 -1 11.125 -3.5625 10.75 C-5.4375 9.0625 -5.4375 9.0625 -6.5625 6.75 C-6.4375 4.125 -6.4375 4.125 -5.5625 1.75 C-2.5625 -0.25 -2.5625 -0.25 0 0 Z " fill="#4B5362" transform="translate(222.5625,79.25)"/>
<path d="M0 0 C2.9375 0.875 2.9375 0.875 4.9375 3.875 C4.75 6.4375 4.75 6.4375 3.9375 8.875 C0.9375 10.875 0.9375 10.875 -1.625 10.625 C-4.0625 9.875 -4.0625 9.875 -6.0625 7.875 C-6.4258156 5.04113833 -6.4193671 3.46977849 -4.9375 1 C-3.0625 -0.125 -3.0625 -0.125 0 0 Z " fill="#586375" transform="translate(85.0625,22.125)"/>
<path d="M0 0 C2.5625 0.3125 2.5625 0.3125 4.375 1.5 C6.00302002 3.98487266 6.07225499 5.39961432 5.5625 8.3125 C3.875 10.1875 3.875 10.1875 1.5625 11.3125 C-1.0625 11.1875 -1.0625 11.1875 -3.4375 10.3125 C-5.4375 7.3125 -5.4375 7.3125 -5.1875 4.75 C-4.19253762 1.51637226 -3.41216263 0.43745675 0 0 Z " fill="#4A5563" transform="translate(26.4375,78.6875)"/>
<path d="M0 0 C2.4375 0.8125 2.4375 0.8125 4.4375 2.8125 C4.0625 6.4375 4.0625 6.4375 3.4375 9.8125 C0.0625 10.4375 0.0625 10.4375 -3.5625 10.8125 C-5.5625 8.8125 -5.5625 8.8125 -5.875 5.875 C-5.5625 2.8125 -5.5625 2.8125 -4.375 0.875 C-2.5625 -0.1875 -2.5625 -0.1875 0 0 Z " fill="#2A2E34" transform="translate(125.5625,225.1875)"/>
<path d="M0 0 C3.5 0.25 3.5 0.25 5.5 2.25 C5.04545455 7.70454545 5.04545455 7.70454545 2.5 10.25 C-0.34602594 10.61487512 -1.8864306 10.65199375 -4.3125 9.0625 C-5.90199375 6.6364306 -5.86487512 5.09602594 -5.5 2.25 C-3.5 0.25 -3.5 0.25 0 0 Z " fill="#414854" transform="translate(18.5,119.75)"/>
<path d="M0 0 C3 0.25 3 0.25 5 2.25 C4.42307692 8.82692308 4.42307692 8.82692308 3 10.25 C-2.25450902 10.70691383 -2.25450902 10.70691383 -4.9375 9.0625 C-6 7.25 -6 7.25 -5.8125 4.6875 C-4.61374094 1.09122283 -3.8124642 0.31770535 0 0 Z " fill="#596678" transform="translate(125,14.75)"/>
<path d="M0 0 C1 1 1 1 1.25 4.4375 C1.1675 5.613125 1.085 6.78875 1 8 C-2 10 -2 10 -4.5625 9.8125 C-7 9 -7 9 -9 6 C-8.75 2.875 -8.75 2.875 -8 0 C-5.11795733 -1.44102133 -3.08226581 -0.65580124 0 0 Z " fill="#373F48" transform="translate(226,161)"/>
<path d="M0 0 C2.3125 -0.25 2.3125 -0.25 5 0 C6.875 1.625 6.875 1.625 8 4 C7.6875 7.25 7.6875 7.25 7 10 C1.57534247 11.3260274 1.57534247 11.3260274 -0.875 9.9375 C-2.44071111 7.24099753 -2.20391303 5.05869541 -2 2 C-1.34 2 -0.68 2 0 2 C0 1.34 0 0.68 0 0 Z " fill="#414654" transform="translate(227,119)"/>
<path d="M0 0 C0.33 0 0.66 0 1 0 C1.3573999 6.98915356 0.92075867 13.57955672 -0.375 20.4375 C-0.50108643 21.11103516 -0.62717285 21.78457031 -0.75708008 22.47851562 C-1.34236441 25.40238144 -2.0342649 28.08382253 -3.1640625 30.84765625 C-3.43992188 31.55792969 -3.71578125 32.26820313 -4 33 C-3.67 33.66 -3.34 34.32 -3 35 C-2.960008 36.99960012 -2.95653201 39.00047242 -3 41 C-3.66 41 -4.32 41 -5 41 C-7.25045282 34.38102112 -6.8570301 30.35895685 -4.5546875 23.93359375 C-2.89571325 18.99525179 -2.04317176 14.08414424 -1.3125 8.9375 C-1.11817383 7.6390918 -1.11817383 7.6390918 -0.91992188 6.31445312 C-0.60610144 4.21069392 -0.30200786 2.10548743 0 0 Z " fill="#586074" transform="translate(221,128)"/>
<path d="M0 0 C0.66 0.99 1.32 1.98 2 3 C1.64808594 3.47824219 1.29617187 3.95648438 0.93359375 4.44921875 C-3.76685227 11.48147872 -6.16283165 18.90692734 -8.63891602 26.94995117 C-9.05741821 28.29150269 -9.05741821 28.29150269 -9.484375 29.66015625 C-9.72897461 30.47105713 -9.97357422 31.28195801 -10.22558594 32.11743164 C-11 34 -11 34 -13 35 C-13.28221248 29.61731317 -12.49244514 25.843353 -10.4375 20.875 C-10.17372559 20.23554443 -9.90995117 19.59608887 -9.63818359 18.93725586 C-6.86751974 12.38540324 -3.52041742 6.17635363 0 0 Z " fill="#C0C1CB" transform="translate(26,63)"/>
<path d="M0 0 C6.49575382 -0.32291031 11.75196259 0.76070274 17.9375 2.6875 C18.77990234 2.93177734 19.62230469 3.17605469 20.49023438 3.42773438 C26.46112582 5.24336341 31.66588782 7.77211624 37 11 C36.34 11.66 35.68 12.32 35 13 C34.06542969 12.55269531 33.13085938 12.10539062 32.16796875 11.64453125 C21.70436519 6.78084336 11.2160904 3.64553437 0 1 C0 0.67 0 0.34 0 0 Z " fill="#EEF0F7" transform="translate(141,12)"/>
<path d="M0 0 C1.485 0.99 1.485 0.99 3 2 C3 2.66 3 3.32 3 4 C4.61400692 5.59671399 6.2913834 7.12996047 8 8.625 C8.928125 9.44226562 9.85625 10.25953125 10.8125 11.1015625 C11.534375 11.72804688 12.25625 12.35453125 13 13 C9.36147686 13.95792977 5.72908331 14.49800802 2 15 C1.66223316 13.2508503 1.32996329 11.50063855 1 9.75 C0.814375 8.77546875 0.62875 7.8009375 0.4375 6.796875 C0 4 0 4 0 0 Z " fill="#A9C3E0" transform="translate(192,32)"/>
<path d="M0 0 C10.40909059 0.15836791 18.41599757 1.67728442 28 6 C29.43688452 6.60562901 30.87425506 7.21010883 32.3125 7.8125 C33.199375 8.204375 34.08625 8.59625 35 9 C34.34 9.99 33.68 10.98 33 12 C32.09378906 11.60167969 31.18757813 11.20335937 30.25390625 10.79296875 C20.27061145 6.43592264 10.75411748 2.9083507 0 1 C0 0.67 0 0.34 0 0 Z " fill="#5B6175" transform="translate(137,29)"/>
<path d="M0 0 C-0.33 2.97 -0.66 5.94 -1 9 C-1.33 8.34 -1.66 7.68 -2 7 C-2.763125 7.0825 -3.52625 7.165 -4.3125 7.25 C-7 7 -7 7 -8.875 5.1875 C-9.24625 4.465625 -9.6175 3.74375 -10 3 C-9.67 2.01 -9.34 1.02 -9 0 C-5.93109813 -1.53445094 -3.29905734 -0.54984289 0 0 Z " fill="#535A6C" transform="translate(54,48)"/>
<path d="M0 0 C1.14240002 3.42720007 0.83197206 5.11054083 0.1875 8.625 C0.01605469 9.60726562 -0.15539063 10.58953125 -0.33203125 11.6015625 C-0.55246094 12.39304687 -0.77289063 13.18453125 -1 14 C-4.20062687 15.60031344 -6.72271806 14.03173691 -10 13 C-9.02133662 11.85373678 -8.04205413 10.70800212 -7.0625 9.5625 C-6.24458984 8.60537109 -6.24458984 8.60537109 -5.41015625 7.62890625 C-4.63204305 6.73008851 -3.84063472 5.84063472 -3 5 C-3.66 4.67 -4.32 4.34 -5 4 C-3.35 2.68 -1.7 1.36 0 0 Z " fill="#ADC4DE" transform="translate(56,31)"/>
<path d="M0 0 C2.70530675 4.05796013 3.12208379 5.82740985 3.09765625 10.6640625 C3.09443359 11.78554687 3.09121094 12.90703125 3.08789062 14.0625 C3.07951172 15.238125 3.07113281 16.41375 3.0625 17.625 C3.05798828 18.80835937 3.05347656 19.99171875 3.04882812 21.2109375 C3.03701467 24.14067507 3.02054258 27.07031272 3 30 C2.34 30 1.68 30 1 30 C-0.19148936 9.46808511 -0.19148936 9.46808511 0 0 Z " fill="#9B98A7" transform="translate(237,106)"/>
<path d="M0 0 C3.35496601 3.74788996 4.63658935 8.06280338 6.1875 12.75 C6.46013672 13.5234375 6.73277344 14.296875 7.01367188 15.09375 C8.7457144 20.26817279 9.28008295 24.54771862 9 30 C7.29249011 27.43873517 6.57313114 25.98166492 5.78125 23.12890625 C5.57113281 22.38962891 5.36101562 21.65035156 5.14453125 20.88867188 C4.82548828 19.7372168 4.82548828 19.7372168 4.5 18.5625 C3.27347899 14.15817454 2.08379274 10.08155733 0 6 C-0.125 2.75 -0.125 2.75 0 0 Z " fill="#B4B6C1" transform="translate(228,75)"/>
<path d="M0 0 C0.66 0.33 1.32 0.66 2 1 C0.95346039 4.17359739 0.12121102 4.93645406 -2.8984375 6.51953125 C-4.04570313 6.94621094 -5.19296875 7.37289062 -6.375 7.8125 C-7.51710938 8.25207031 -8.65921875 8.69164063 -9.8359375 9.14453125 C-12.86129906 9.96249938 -14.15120332 10.14372872 -17 9 C-16.01 9 -15.02 9 -14 9 C-14 8.34 -14 7.68 -14 7 C-15.32 6.67 -16.64 6.34 -18 6 C-17.20335937 5.81824219 -16.40671875 5.63648437 -15.5859375 5.44921875 C-8.77399702 3.93336747 -8.77399702 3.93336747 -2.375 1.25 C-1.59125 0.8375 -0.8075 0.425 0 0 Z " fill="#63224D" transform="translate(80,98)"/>
<path d="M0 0 C3.0625 0.1875 3.0625 0.1875 5.0625 2.1875 C4.52678571 5.72321429 4.52678571 5.72321429 3.0625 7.1875 C1.06291636 7.22830783 -0.93795254 7.23004356 -2.9375 7.1875 C-3.31883299 5.1960944 -3.65075582 3.19470923 -3.9375 1.1875 C-2.9375 0.1875 -2.9375 0.1875 0 0 Z " fill="#4E5A69" transform="translate(198.9375,47.8125)"/>
<path d="M0 0 C4.95 0.99 9.9 1.98 15 3 C11.29847322 3.92538169 10.36541838 4.08174162 7 3 C7 3.66 7 4.32 7 5 C11.95 5 16.9 5 22 5 C22 5.33 22 5.66 22 6 C5.1070615 6.55353075 5.1070615 6.55353075 -2 3 C-1.34 2.67 -0.68 2.34 0 2 C0 1.34 0 0.68 0 0 Z " fill="#702454" transform="translate(175,102)"/>
<path d="M0 0 C0.66 0 1.32 0 2 0 C0.6077541 4.62675657 -1.29520984 8.64686231 -3.625 12.875 C-4.25664062 14.02742187 -4.88828125 15.17984375 -5.5390625 16.3671875 C-6.02117187 17.23601562 -6.50328125 18.10484375 -7 19 C-7.66 19 -8.32 19 -9 19 C-8.38737369 16.17919621 -7.52845191 13.86191144 -6.15234375 11.328125 C-5.79462891 10.66425781 -5.43691406 10.00039062 -5.06835938 9.31640625 C-4.69517578 8.63449219 -4.32199219 7.95257813 -3.9375 7.25 C-3.56044922 6.55261719 -3.18339844 5.85523438 -2.79492188 5.13671875 C-1.86726612 3.42231698 -0.93416546 1.71086339 0 0 Z " fill="#787F8E" transform="translate(230,167)"/>
<path d="M0 0 C3.3 0 6.6 0 10 0 C9 4 9 4 8 5 C5.0625 5.1875 5.0625 5.1875 2 5 C1.34 4.34 0.68 3.68 0 3 C0 2.01 0 1.02 0 0 Z " fill="#2C3238" transform="translate(160,223)"/>
<path d="M0 0 C-2.69981425 2.69981425 -5.88020238 3.70230888 -9.375 5.0625 C-10.04789063 5.33126953 -10.72078125 5.60003906 -11.4140625 5.87695312 C-14.57165487 7.1232076 -17.67070356 8.30853074 -21 9 C-20 6 -20 6 -17.3828125 4.6484375 C-15.77019531 4.01808594 -15.77019531 4.01808594 -14.125 3.375 C-13.05507812 2.94960938 -11.98515625 2.52421875 -10.8828125 2.0859375 C-7.00260959 0.62428925 -4.13814903 -0.11184187 0 0 Z " fill="#E9E7ED" transform="translate(93,15)"/>
<path d="M0 0 C3.3 0 6.6 0 10 0 C9.34 1.65 8.68 3.3 8 5 C5.125 5.125 5.125 5.125 2 5 C1.34 4.34 0.68 3.68 0 3 C0 2.01 0 1.02 0 0 Z " fill="#2C3137" transform="translate(79,223)"/>
<path d="M0 0 C4.29180445 0.5109291 6.64388709 3.04005567 9.75 5.875 C10.25660156 6.32230469 10.76320312 6.76960938 11.28515625 7.23046875 C12.58748547 8.42046769 13.80102294 9.70593165 15 11 C15 11.99 15 12.98 15 14 C11.6029867 12.86766223 10.63443805 11.43224725 8.47265625 8.6953125 C6.33745183 6.23727876 3.87733332 4.24789764 1.35546875 2.19921875 C0.90816406 1.80347656 0.46085938 1.40773437 0 1 C0 0.67 0 0.34 0 0 Z " fill="#D8D9E1" transform="translate(193,34)"/>
<path d="M0 0 C1.109375 1.58203125 1.109375 1.58203125 2 4 C1.390625 7.19921875 1.390625 7.19921875 0.25 10.6875 C-0.11609375 11.84636719 -0.4821875 13.00523438 -0.859375 14.19921875 C-2 17 -2 17 -4 18 C-4.59244521 11.33499135 -2.48322845 6.13047025 0 0 Z " fill="#B3B6C2" transform="translate(17,80)"/>
<path d="M0 0 C0.66 0.99 1.32 1.98 2 3 C-1.20760251 6.80635497 -4.40746109 10.54563567 -8 14 C-7.46719784 9.77510398 -6.12321801 7.45919284 -3.4375 4.1875 C-2.47650391 3.00220703 -2.47650391 3.00220703 -1.49609375 1.79296875 C-1.00238281 1.20128906 -0.50867187 0.60960937 0 0 Z " fill="#C9CBD5" transform="translate(35,51)"/>
<path d="M0 0 C0.66 0 1.32 0 2 0 C3.03572896 1.74122549 4.0531252 3.49336595 5.0625 5.25 C5.63097656 6.22453125 6.19945312 7.1990625 6.78515625 8.203125 C8 11 8 11 7.68359375 13.359375 C7.45800781 13.90078125 7.23242188 14.4421875 7 15 C5.82539808 13.06730041 4.66055528 11.12866687 3.5 9.1875 C2.8503125 8.10855469 2.200625 7.02960938 1.53125 5.91796875 C0 3 0 3 0 0 Z " fill="#797D8D" transform="translate(19,172)"/>
<path d="M0 0 C5.01508715 1.54058233 9.6147081 3.02931839 14 6 C13.34 6.66 12.68 7.32 12 8 C8.04 6.02 4.08 4.04 0 2 C0 1.34 0 0.68 0 0 Z " fill="#E7E7EF" transform="translate(164,17)"/>
<path d="M0 0 C1.4540625 0.0309375 1.4540625 0.0309375 2.9375 0.0625 C2.9375 0.7225 2.9375 1.3825 2.9375 2.0625 C3.5975 2.0625 4.2575 2.0625 4.9375 2.0625 C4.6075 3.0525 4.2775 4.0425 3.9375 5.0625 C3.6075 4.7325 3.2775 4.4025 2.9375 4.0625 C-0.02067107 3.81244614 -0.02067107 3.81244614 -3.0625 4.0625 C-3.7225 4.7225 -4.3825 5.3825 -5.0625 6.0625 C-3.98897059 0.08140756 -3.98897059 0.08140756 0 0 Z " fill="#5A3256" transform="translate(26.0625,159.9375)"/>
<path d="M0 0 C0.33 1.32 0.66 2.64 1 4 C0.34 3.67 -0.32 3.34 -1 3 C-4 2.75 -4 2.75 -7 3 C-7.66 3.66 -8.32 4.32 -9 5 C-8.625 2.5625 -8.625 2.5625 -8 0 C-5.13822943 -1.43088528 -3.06624227 -0.59991697 0 0 Z " fill="#55274C" transform="translate(226,161)"/>
<path d="M0 0 C2.625 0.25 2.625 0.25 4.4375 1.75 C4.829375 2.245 5.22125 2.74 5.625 3.25 C5.295 4.24 4.965 5.23 4.625 6.25 C4.295 5.59 3.965 4.93 3.625 4.25 C-0.51593698 4.04029441 -0.51593698 4.04029441 -4.375 5.25 C-3.26717391 0.34391304 -3.26717391 0.34391304 0 0 Z " fill="#5B2F54" transform="translate(26.375,78.75)"/>
<path d="M0 0 C0.66 0.66 1.32 1.32 2 2 C1.67 2.99 1.34 3.98 1 5 C0.67 4.34 0.34 3.68 0 3 C-4.14093698 2.79029441 -4.14093698 2.79029441 -8 4 C-7.625 2.0625 -7.625 2.0625 -7 0 C-4.29393021 -1.35303489 -2.8671629 -0.7884698 0 0 Z " fill="#522347" transform="translate(128,226)"/>
<path d="M0 0 C3.375 -0.125 3.375 -0.125 7 0 C7.66 0.66 8.32 1.32 9 2 C8.625 4.125 8.625 4.125 8 6 C7.34 5.01 6.68 4.02 6 3 C3.19438238 2.71943824 1.53421737 2.73289132 -1 4 C-0.67 2.68 -0.34 1.36 0 0 Z " fill="#5A2E54" transform="translate(15,120)"/>
<path d="M0 0 C1.66832577 2.50248865 2.62381674 4.41149187 3.625 7.1875 C3.88539062 7.90292969 4.14578125 8.61835938 4.4140625 9.35546875 C4.60742188 9.89816406 4.80078125 10.44085938 5 11 C4.01 11 3.02 11 2 11 C-1.07692308 4.6 -1.07692308 4.6 -0.6875 1.5625 C-0.460625 1.046875 -0.23375 0.53125 0 0 Z " fill="#818997" transform="translate(16,161)"/>
<path d="M0 0 C0.33 1.32 0.66 2.64 1 4 C-0.11375 3.814375 -1.2275 3.62875 -2.375 3.4375 C-5.82568861 2.68319343 -5.82568861 2.68319343 -8 4 C-7.625 2.0625 -7.625 2.0625 -7 0 C-4.3333581 -1.33332095 -2.83319697 -0.67102033 0 0 Z " fill="#5D2F56" transform="translate(225,80)"/>
<path d="M0 0 C3.0625 0.1875 3.0625 0.1875 5.0625 2.1875 C4.7325 3.1775 4.4025 4.1675 4.0625 5.1875 C3.4025 4.5275 2.7425 3.8675 2.0625 3.1875 C-1.02097826 3.02068891 -1.02097826 3.02068891 -3.9375 3.1875 C-4.2675 3.8475 -4.5975 4.5075 -4.9375 5.1875 C-3.82120474 0.24390669 -3.82120474 0.24390669 0 0 Z " fill="#602F58" transform="translate(124.9375,14.8125)"/>
<path d="M0 0 C2.83022097 3.99560608 1.76210446 7.42737323 1 12 C0.34 12 -0.32 12 -1 12 C-1.14285714 3.42857143 -1.14285714 3.42857143 0 0 Z " fill="#A7ACB9" transform="translate(12,94)"/>
<path d="M0 0 C3.1875 0.3125 3.1875 0.3125 6 1 C6.33 2.32 6.66 3.64 7 5 C3.7 4.34 0.4 3.68 -3 3 C-2.01 2.01 -1.02 1.02 0 0 Z " fill="#5E2D56" transform="translate(197,45)"/>
<path d="M0 0 C2.97 0.495 2.97 0.495 6 1 C6.33 2.32 6.66 3.64 7 5 C6.34 4.67 5.68 4.34 5 4 C2.6670134 3.95977609 0.33293334 3.95679753 -2 4 C-1.34 2.68 -0.68 1.36 0 0 Z " fill="#60315A" transform="translate(82,22)"/>
<path d="M0 0 C2.73704754 2.73704754 3.16182449 5.26044774 4 9 C3.625 11.4375 3.625 11.4375 3 13 C0.89172945 9.83759418 0.66182535 8.49342531 0.375 4.8125 C0.30023438 3.91144531 0.22546875 3.01039062 0.1484375 2.08203125 C0.09945312 1.39496094 0.05046875 0.70789063 0 0 Z " fill="#607182" transform="translate(216,90)"/>
<path d="M0 0 C0.66 0 1.32 0 2 0 C0.94124926 3.40312738 -0.00902154 6.01353231 -2 9 C-2.66 9 -3.32 9 -4 9 C-2.80100302 5.9168649 -1.52299523 2.93720508 0 0 Z " fill="#7F8594" transform="translate(230,167)"/>
<path d="M0 0 C1.65 0 3.3 0 5 0 C5.66 1.32 6.32 2.64 7 4 C4.36 4 1.72 4 -1 4 C-0.67 2.68 -0.34 1.36 0 0 Z " fill="#5E2F56" transform="translate(227,119)"/>
<path d="M0 0 C-0.99 0.495 -0.99 0.495 -2 1 C-1.67 1.66 -1.34 2.32 -1 3 C-3.31 3.33 -5.62 3.66 -8 4 C-7.01 3.67 -6.02 3.34 -5 3 C-5 2.34 -5 1.68 -5 1 C-6.32 0.67 -7.64 0.34 -9 0 C-5.62182575 -0.84454356 -3.32534757 -1.10844919 0 0 Z " fill="#7B305E" transform="translate(71,104)"/>
<path d="M0 0 C2.5 2.3125 2.5 2.3125 5 5 C5 5.99 5 6.98 5 8 C3.02 6.35 1.04 4.7 -1 3 C-0.67 2.01 -0.34 1.02 0 0 Z " fill="#CBCED9" transform="translate(208,46)"/>
<path d="M0 0 C2.64 0 5.28 0 8 0 C8 0.66 8 1.32 8 2 C5.05160959 2.9827968 3.05869028 3 0 3 C-0.99 3.495 -0.99 3.495 -2 4 C-1.34 2.68 -0.68 1.36 0 0 Z " fill="#5F2A54" transform="translate(47,45)"/>
<path d="M0 0 C0.66 0.33 1.32 0.66 2 1 C-1.96 4.465 -1.96 4.465 -6 8 C-6.33 7.34 -6.66 6.68 -7 6 C-3.375 1.125 -3.375 1.125 0 0 Z " fill="#D9DEE7" transform="translate(53,35)"/>
<path d="M0 0 C2.26609984 4.53219967 1.92735976 6.17772925 1 11 C0.34 10.67 -0.32 10.34 -1 10 C-0.67 6.7 -0.34 3.4 0 0 Z " fill="#A09AA9" transform="translate(10,102)"/>
</svg>
