<?xml version="1.0" encoding="UTF-8"?>
<svg version="1.1" xmlns="http://www.w3.org/2000/svg" width="250" height="248">
<path d="M0 0 C82.5 0 165 0 250 0 C250 81.84 250 163.68 250 248 C167.5 248 85 248 0 248 C0 166.16 0 84.32 0 0 Z " fill="#472264" transform="translate(0,0)"/>
<path d="M0 0 C1.41720911 -0.00658473 2.8344115 -0.01480305 4.25160217 -0.02458191 C7.22012187 -0.03793064 10.18756079 -0.02910198 13.15600586 -0.00512695 C16.95448391 0.02344221 20.74985673 -0.00657722 24.5480566 -0.05376148 C27.47454653 -0.08300133 30.40029849 -0.0792095 33.32687569 -0.06574059 C34.7266844 -0.06359136 36.12655221 -0.07205717 37.52622795 -0.09147072 C48.48810623 -0.21777745 48.48810623 -0.21777745 51.70401001 2.38511658 C53.04321289 4.27197266 53.04321289 4.27197266 54.78515625 7.83203125 C65.00957098 16.38237808 77.97542888 18.04918128 90.78515625 18.83203125 C91.01851685 20.2871814 91.01851685 20.2871814 91.2565918 21.77172852 C95.76845797 49.94754975 95.76845797 49.94754975 101.78515625 77.83203125 C102.01170898 78.76144531 102.23826172 79.69085938 102.47167969 80.6484375 C106.3445352 96.26736097 111.58437664 110.43047203 118.78515625 124.83203125 C52.12515625 124.83203125 -14.53484375 124.83203125 -83.21484375 124.83203125 C-80.24484375 118.56203125 -77.27484375 112.29203125 -74.21484375 105.83203125 C-72.87250873 102.4374259 -71.64487428 99.23195967 -70.58984375 95.76953125 C-70.31825439 94.89868896 -70.04666504 94.02784668 -69.7668457 93.13061523 C-67.15193553 84.33364717 -65.25671719 75.37620088 -63.40234375 66.39453125 C-63.25504822 65.68263641 -63.10775269 64.97074158 -62.95599365 64.23727417 C-61.16912523 55.51234449 -59.71683121 46.80618764 -58.64404297 37.96435547 C-58.28786162 35.36492048 -57.82351673 32.92565488 -57.15234375 30.39453125 C-56.44693026 27.71395998 -55.97486013 25.33588826 -55.65625 22.609375 C-55.43775391 20.73958984 -55.43775391 20.73958984 -55.21484375 18.83203125 C-54.11527344 18.7340625 -53.01570313 18.63609375 -51.8828125 18.53515625 C-39.59936505 17.33799342 -27.78167376 15.35692928 -18.21484375 6.83203125 C-17.60358643 5.31838989 -17.60358643 5.31838989 -16.97998047 3.77416992 C-13.43138954 -1.57847081 -5.70808536 -0.04448672 0 0 Z " fill="#5C42D0" transform="translate(107.21484375,88.16796875)"/>
<path d="M0 0 C37.29 0 74.58 0 113 0 C113 0.33 113 0.66 113 1 C112.45287354 1.08975098 111.90574707 1.17950195 111.34204102 1.27197266 C101.5230043 2.91856062 91.89576928 4.70439605 82.5 8.0625 C81.81365479 8.30758301 81.12730957 8.55266602 80.42016602 8.80517578 C77.51335982 9.89254605 74.87663866 11.07467519 72.21875 12.68359375 C70 14 70 14 67 14 C66.01 10.7 65.02 7.4 64 4 C63.34 4 62.68 4 62 4 C61.95101562 4.81984375 61.90203125 5.6396875 61.8515625 6.484375 C61.77679688 7.56203125 61.70203125 8.6396875 61.625 9.75 C61.52058594 11.35101562 61.52058594 11.35101562 61.4140625 12.984375 C61.00604277 15.95599038 60.72670351 17.57753654 59 20 C56.3828125 21.97265625 56.3828125 21.97265625 53.125 24.0625 C25.72212543 42.36542249 9.91647444 71.27653648 3 103 C-0.03347541 118.73973089 0.4173044 137.62106068 5 153 C5.22574707 153.78358887 5.45149414 154.56717773 5.68408203 155.37451172 C9.53410443 168.54302805 14.26371985 182.33696724 22.7890625 193.30078125 C24 195 24 195 23.625 197.625 C20.20337006 204.73146218 15.24582939 210.76746347 10.25390625 216.83203125 C9.45412354 217.80503174 8.65434082 218.77803223 7.83032227 219.78051758 C6.92431274 220.87916138 6.92431274 220.87916138 6 222 C7.91292847 221.9371582 7.91292847 221.9371582 9.86450195 221.87304688 C14.64072947 221.7271653 19.41676449 221.63601983 24.19458008 221.56054688 C26.25383727 221.52055817 28.31287085 221.46614596 30.37133789 221.39648438 C50.86601137 220.7207812 50.86601137 220.7207812 58.87915039 227.97753906 C59.92897095 228.97865723 59.92897095 228.97865723 61 230 C63.43200641 231.57198152 65.95752141 232.8647404 68.5625 234.125 C69.22958984 234.45137451 69.89667969 234.77774902 70.58398438 235.11401367 C83.50089246 241.23877095 96.91790528 244.81286267 111 247 C111 247.33 111 247.66 111 248 C74.37 248 37.74 248 0 248 C0 166.16 0 84.32 0 0 Z " fill="#E0E0E0" transform="translate(0,0)"/>
<path d="M0 0 C37.29 0 74.58 0 113 0 C113 81.84 113 163.68 113 248 C76.37 248 39.74 248 2 248 C2 247.67 2 247.34 2 247 C3.23492187 246.79246094 4.46984375 246.58492187 5.7421875 246.37109375 C17.81850946 244.22069679 28.7848565 240.95580163 40 236 C40.96421875 235.5771875 41.9284375 235.154375 42.921875 234.71875 C49.77092769 231.49053408 57.6268647 227.3731353 63 222 C64.38160115 221.9072167 65.76788038 221.88252957 67.15258789 221.88647461 C68.03342545 221.88655014 68.914263 221.88662567 69.8217926 221.88670349 C70.77907761 221.89186478 71.73636261 221.89702606 72.72265625 221.90234375 C74.18547279 221.90446617 74.18547279 221.90446617 75.67784119 221.90663147 C78.80609143 221.91224867 81.93427123 221.92480407 85.0625 221.9375 C87.17773334 221.94251278 89.29296781 221.94707607 91.40820312 221.95117188 C96.60549296 221.96222369 101.80274145 221.97897854 107 222 C106.24944336 221.04665771 105.49888672 220.09331543 104.72558594 219.11108398 C103.72849404 217.84360422 102.73142493 216.57610653 101.734375 215.30859375 C101.24114746 214.68223022 100.74791992 214.0558667 100.23974609 213.41052246 C90.14581171 200.57476647 90.14581171 200.57476647 89.6875 195.625 C91.25052881 191.30806328 93.54865316 187.95434292 96.09375 184.15234375 C99.54638096 178.44276754 101.72009786 172.2432204 104 166 C104.57234375 164.51886719 104.57234375 164.51886719 105.15625 163.0078125 C115.88273468 133.67250213 112.94531158 100.22023526 100.25390625 72.078125 C90.77418484 51.7947396 75.6469174 32.1398745 55.734375 21.20703125 C52.17435207 18.33358417 51.71349365 15.57379363 51.125 11.25 C51.00898438 10.55261719 50.89296875 9.85523438 50.7734375 9.13671875 C50.49257024 7.42810959 50.24308548 5.71439235 50 4 C48.68 7.3 47.36 10.6 46 14 C40.89305176 12.35538955 35.91245421 10.57233188 30.9375 8.5625 C20.94367668 4.6799231 10.65596241 2.18268173 0 1 C0 0.67 0 0.34 0 0 Z " fill="#E0E0E0" transform="translate(137,0)"/>
<path d="M0 0 C1.14240002 3.42720007 0.83197206 5.11054083 0.1875 8.625 C0.01605469 9.60726562 -0.15539063 10.58953125 -0.33203125 11.6015625 C-0.66267578 12.78878906 -0.66267578 12.78878906 -1 14 C-3.95664519 15.4783226 -6.74229737 15.06032783 -10 15 C-10.6878236 17.35367713 -10.6878236 17.35367713 -11 20 C-9.33045181 23.22404978 -9.33045181 23.22404978 -6.375 23.6875 C-5.59125 23.790625 -4.8075 23.89375 -4 24 C-4 29.55762383 -4.90928327 32.28200025 -8.5625 36.5 C-25.24661382 56.08439884 -28.4902784 82.22954739 -27 107 C-26.37086959 111.64588612 -25.26503164 116.04440588 -23.97265625 120.546875 C-22.9804762 124.0693134 -22.44141841 127.37572252 -22 131 C-23.485 131.99 -23.485 131.99 -25 133 C-25 132.34 -25 131.68 -25 131 C-26.27875 130.79375 -27.5575 130.5875 -28.875 130.375 C-29.59429688 130.25898438 -30.31359375 130.14296875 -31.0546875 130.0234375 C-31.69664063 130.01570312 -32.33859375 130.00796875 -33 130 C-35.68623217 132.68623217 -35.82215781 134.22085345 -36 138 C-34.93166066 140.55151257 -33.87102777 142.75500777 -32.5 145.125 C-28.92812702 151.3790973 -28.92812702 151.3790973 -29.28125 154.4296875 C-29.5184375 154.94789063 -29.755625 155.46609375 -30 156 C-39.18788643 141.75737969 -44.64620116 126.74021732 -47 110 C-47.13019531 109.17371094 -47.26039062 108.34742188 -47.39453125 107.49609375 C-51.12596278 80.48052949 -43.9305394 51.08313455 -28.18359375 28.859375 C-20.05823937 18.21937606 -11.23893302 7.49262201 0 0 Z " fill="#859DB6" transform="translate(57,30)"/>
<path d="M0 0 C23.14769414 14.01044645 39.44087248 40.06856562 46 66 C53.08618019 96.46499513 47.56232655 125.71264979 33 153 C32.67 153.66 32.34 154.32 32 155 C31.34 155 30.68 155 30 155 C29.32389577 153.10751181 28.65949561 151.2108398 28 149.3125 C27.62875 148.25675781 27.2575 147.20101562 26.875 146.11328125 C26.0608143 143.21637944 25.82290204 140.98299377 26 138 C27.9490625 138.0309375 27.9490625 138.0309375 29.9375 138.0625 C31.29165633 138.08399454 32.64756083 138.07148199 34 138 C35.34404775 136.88163776 35.34404775 136.88163776 35.125 134 C35.34404775 131.11836224 35.34404775 131.11836224 34 130 C32.65252916 129.76924918 31.29622435 129.58846937 29.9375 129.4375 C28.638125 129.293125 27.33875 129.14875 26 129 C26.28875 127.88367188 26.5775 126.76734375 26.875 125.6171875 C30.97604087 108.75674444 32.09847642 91.77563209 27 75 C26.65210286 73.66774273 26.30862555 72.33432622 25.96875 71 C22.26579446 56.90846553 16.47943642 44.89838437 7.56640625 33.3515625 C5.41979443 30.1289682 5 27.8276273 5 24 C7.31 23.34 9.62 22.68 12 22 C12 19.69 12 17.38 12 15 C7.34947128 14.73067479 7.34947128 14.73067479 3 16 C2.49595192 13.89679937 1.99689492 11.79240209 1.5 9.6875 C1.08234375 7.92986328 1.08234375 7.92986328 0.65625 6.13671875 C0 3 0 3 0 0 Z " fill="#8EAAC4" transform="translate(192,30)"/>
<path d="M0 0 C1.66426162 0.67264811 3.32976491 1.34232458 5 2 C3.06375702 8.20477864 0.74390859 14.10825719 -2 20 C-5.55100403 19.43703595 -8.0514667 18.51914439 -11.125 16.6875 C-29.70107051 7.31775182 -55.0064481 7.006012 -74.63671875 12.8515625 C-75.74660156 13.23054688 -76.85648438 13.60953125 -78 14 C-79.61841797 14.53753906 -79.61841797 14.53753906 -81.26953125 15.0859375 C-86.29489488 16.82664752 -86.29489488 16.82664752 -91.046875 19.1796875 C-93 20 -93 20 -95.1171875 19.94921875 C-97 19 -97 19 -98.1953125 16.70703125 C-98.50210938 15.75183594 -98.80890625 14.79664062 -99.125 13.8125 C-99.43695313 12.87019531 -99.74890625 11.92789062 -100.0703125 10.95703125 C-100.37710938 9.98121094 -100.68390625 9.00539063 -101 8 C-101.66457498 5.99930399 -102.33066845 3.99910973 -103 2 C-68.72475209 -13.80681005 -34.80926299 -15.11503826 0 0 Z " fill="#B1D3F3" transform="translate(174,19)"/>
<path d="M0 0 C6.07862911 4.49951732 11.64326338 9.60094318 14 17 C13.35822209 20.85066743 12.1593025 22.76104625 10 26 C7.6335144 26.36076355 7.6335144 26.36076355 4.63232422 26.34057617 C3.51131317 26.34034958 2.39030212 26.34012299 1.23532104 26.33988953 C0.02071198 26.32440567 -1.19389709 26.30892181 -2.4453125 26.29296875 C-3.68546112 26.28872391 -4.92560974 26.28447906 -6.20333862 26.28010559 C-9.50135463 26.26613216 -12.7989335 26.23917361 -16.09680176 26.20599365 C-19.46161542 26.17531238 -22.82649304 26.16160446 -26.19140625 26.14648438 C-32.79444271 26.1133473 -39.39718558 26.06309697 -46 26 C-46.95664324 24.0947781 -47.91235396 22.18908796 -48.86767578 20.28320312 C-49.3999881 19.22202271 -49.93230042 18.16084229 -50.48074341 17.06750488 C-52.37154279 13.24982433 -54.15945942 9.39895586 -55.875 5.5 C-56.18179688 4.82453125 -56.48859375 4.1490625 -56.8046875 3.453125 C-58.32593168 0.00316051 -59 -2.16254298 -59 -6 C-57.60550891 -6.483059 -56.20933293 -6.96125517 -54.8125 -7.4375 C-54.03519531 -7.70433594 -53.25789063 -7.97117188 -52.45703125 -8.24609375 C-35.40204059 -13.47918309 -14.6136455 -10.02806419 0 0 Z " fill="#40356E" transform="translate(143,55)"/>
<path d="M0 0 C2.6058889 -0.13494246 5.20482111 -0.23402299 7.8125 -0.3125 C8.55048828 -0.35439453 9.28847656 -0.39628906 10.04882812 -0.43945312 C12.20703125 -0.48828125 12.20703125 -0.48828125 16 0 C17.78125 2.5 17.78125 2.5 19 5 C22.62599422 5.41725678 22.62599422 5.41725678 26 5 C26.33 3.68 26.66 2.36 27 1 C50.43 1 73.86 1 98 1 C98.495 2.485 98.495 2.485 99 4 C103.10223585 5.01540112 103.10223585 5.01540112 107 4 C107.33 2.68 107.66 1.36 108 0 C113.28 0 118.56 0 124 0 C112.87482599 11.12517401 93.08719599 15.85468001 78 18 C76.91332031 18.1753125 75.82664062 18.350625 74.70703125 18.53125 C48.61322043 21.83078351 21.98477549 15.24782565 0 1 C0 0.67 0 0.34 0 0 Z " fill="#475260" transform="translate(63,221)"/>
<path d="M0 0 C0.66 0.33 1.32 0.66 2 1 C2.62183267 3.73859947 3.11791332 6.41732381 3.55078125 9.1875 C3.69001511 10.0293988 3.82924896 10.87129761 3.97270203 11.7387085 C4.42694695 14.4912778 4.86963193 17.24557957 5.3125 20 C5.92807774 23.75613104 6.5505951 27.51108217 7.17578125 31.265625 C7.32975372 32.19320618 7.4837262 33.12078735 7.6423645 34.07647705 C9.08541781 42.68404632 10.77554621 51.22849976 12.6652832 59.75 C12.85823975 60.65234375 13.05119629 61.5546875 13.25 62.484375 C13.42015625 63.24459961 13.5903125 64.00482422 13.765625 64.78808594 C14.04058517 67.38302256 13.62171511 69.47872317 13 72 C1.84420115 72.64360378 -10.30255843 69.61848242 -18.98828125 62.33203125 C-22.04404107 59.1498262 -22.04404107 59.1498262 -23 57 C-22.52965675 52.46190032 -21.21098154 48.74749513 -19.375 44.58984375 C-19.11188522 43.9885112 -18.84877045 43.38717865 -18.5776825 42.7676239 C-17.7246204 40.82147195 -16.86234786 38.87955268 -16 36.9375 C-15.41047847 35.5965146 -14.8216976 34.25520336 -14.23364258 32.91357422 C-13.05353799 30.22206707 -11.8706828 27.53179547 -10.68603516 24.84228516 C-8.31605766 19.45245695 -5.99927461 14.03999768 -3.6875 8.625 C-3.30916016 7.74062256 -2.93082031 6.85624512 -2.54101562 5.94506836 C-1.69336137 3.96365644 -0.84656381 1.98187806 0 0 Z " fill="#D8D7D9" transform="translate(183,32)"/>
<path d="M0 0 C2.48099934 2.48099934 3.3449368 4.82162057 4.72265625 8.0546875 C4.98435608 8.66414215 5.24605591 9.2735968 5.51568604 9.90151978 C6.3690708 11.89080971 7.21595414 13.88279125 8.0625 15.875 C9.23183353 18.61307123 10.40426787 21.34980283 11.578125 24.0859375 C11.86911575 24.76505188 12.16010651 25.44416626 12.45991516 26.14385986 C14.20385962 30.19853761 16.00014439 34.2229839 17.859375 38.2265625 C18.48767212 39.58225342 18.48767212 39.58225342 19.12866211 40.96533203 C19.89621408 42.60870687 20.67255641 44.24801584 21.45922852 45.88232422 C23.38872317 50.0287922 24.79007892 53.33317792 24 58 C18.41293525 65.98358347 8.52099185 69.42630664 -0.58984375 71.625 C-4.39847938 72.21759161 -8.15786393 72.05734531 -12 72 C-12.26984927 64.46513138 -11.24246712 57.51830503 -9.8828125 50.1171875 C-9.6655954 48.90354523 -9.4483783 47.68990295 -9.22457886 46.43948364 C-8.76587413 43.88558576 -8.30341255 41.33236011 -7.83740234 38.77978516 C-7.12628935 34.88206711 -6.42741962 30.98230388 -5.73046875 27.08203125 C-5.2819674 24.59362059 -4.83277218 22.10533487 -4.3828125 19.6171875 C-4.17439728 18.45661835 -3.96598206 17.29604919 -3.75125122 16.10031128 C-2.74926957 10.63311807 -1.6652007 5.30514028 0 0 Z " fill="#D8D7D9" transform="translate(66,32)"/>
<path d="M0 0 C0.495 0.99 0.495 0.99 1 2 C-0.77653309 5.37878603 -2.98031546 8.37766828 -5.25 11.4375 C-19.89054284 32.37903597 -25.03831021 57.56324767 -21.61914062 82.8125 C-20.92081124 86.46091476 -19.99788487 89.97511077 -18.97265625 93.546875 C-17.9804762 97.0693134 -17.44141841 100.37572252 -17 104 C-18.485 104.99 -18.485 104.99 -20 106 C-20 105.34 -20 104.68 -20 104 C-21.918125 103.690625 -21.918125 103.690625 -23.875 103.375 C-24.95394531 103.20097656 -24.95394531 103.20097656 -26.0546875 103.0234375 C-26.69664063 103.01570313 -27.33859375 103.00796875 -28 103 C-30.68623217 105.68623217 -30.82215781 107.22085345 -31 111 C-29.93166066 113.55151257 -28.87102777 115.75500777 -27.5 118.125 C-23.92812702 124.3790973 -23.92812702 124.3790973 -24.28125 127.4296875 C-24.5184375 127.94789063 -24.755625 128.46609375 -25 129 C-39 107.29787234 -39 107.29787234 -39 97 C-38.34 97 -37.68 97 -37 97 C-37.2165625 95.93523437 -37.433125 94.87046875 -37.65625 93.7734375 C-42.15697881 70.74719696 -42.15697881 70.74719696 -39.0859375 63.98828125 C-37.875 62.5625 -37.875 62.5625 -35 61 C-31.6875 61.1875 -31.6875 61.1875 -29 62 C-28.67 62.99 -28.34 63.98 -28 65 C-27.34 65 -26.68 65 -26 65 C-25.99742188 64.23300781 -25.99484375 63.46601562 -25.9921875 62.67578125 C-25.15161261 38.55128178 -14.86993744 18.49675146 0 0 Z " fill="#6F8498" transform="translate(52,57)"/>
<path d="M0 0 C8.87854707 8.47284896 14.92567382 18.91530689 20 30 C20.556875 31.175625 21.11375 32.35125 21.6875 33.5625 C25.50855903 43.57003556 27.21807112 53.31451526 27 64 C27.515625 63.484375 28.03125 62.96875 28.5625 62.4375 C31.9710271 60.42734299 34.23106857 61.20272604 38 62 C38 62.66 38 63.32 38 64 C38.66 64 39.32 64 40 64 C43.34956562 75.32861216 41.30064278 93.39871444 36 104 C36.99 104.495 36.99 104.495 38 105 C36.92170366 107.52309229 35.83754295 110.04339541 34.75 112.5625 C34.44964844 113.26697266 34.14929688 113.97144531 33.83984375 114.69726562 C31.83416111 119.32740533 29.57714586 123.66104425 27 128 C26.34 128 25.68 128 25 128 C24.32389577 126.10751181 23.65949561 124.2108398 23 122.3125 C22.443125 120.72888672 22.443125 120.72888672 21.875 119.11328125 C21.0608143 116.21637944 20.82290204 113.98299377 21 111 C22.299375 111.020625 23.59875 111.04125 24.9375 111.0625 C26.29165633 111.08399454 27.64756083 111.07148199 29 111 C30.34404775 109.88163776 30.34404775 109.88163776 30.125 107 C30.34404775 104.11836224 30.34404775 104.11836224 29 103 C27.65252916 102.76924918 26.29622435 102.58846937 24.9375 102.4375 C23.638125 102.293125 22.33875 102.14875 21 102 C21.28875 100.88367188 21.5775 99.76734375 21.875 98.6171875 C25.97604087 81.75674444 27.09847642 64.77563209 22 48 C21.65210286 46.66774273 21.30862555 45.33432622 20.96875 44 C17.29911176 30.03525395 11.56597619 17.57629876 2.56640625 6.234375 C1.05372633 4.07663706 0.41924618 2.57452581 0 0 Z " fill="#708499" transform="translate(197,57)"/>
<path d="M0 0 C-0.58838199 4.84111765 -2.07653116 8.96071195 -4.0625 13.375 C-4.34416016 14.01566406 -4.62582031 14.65632813 -4.91601562 15.31640625 C-5.60459421 16.88029659 -6.30144711 18.44053941 -7 20 C-10.01250612 18.66904363 -11.83640577 17.27471531 -14 14.8125 C-24.08007286 4.47396374 -38.85335104 -0.99951918 -53.09619141 -1.29101562 C-62.57663898 -1.36600029 -70.84450858 -0.55499134 -79.9453125 2.125 C-83 3 -83 3 -86 3 C-85.88671875 1.1640625 -85.88671875 1.1640625 -85 -1 C-82.26953125 -2.4140625 -82.26953125 -2.4140625 -78.8125 -3.625 C-77.12060547 -4.23214844 -77.12060547 -4.23214844 -75.39453125 -4.8515625 C-74.27433594 -5.23054688 -73.15414062 -5.60953125 -72 -6 C-70.98421875 -6.34546875 -69.9684375 -6.6909375 -68.921875 -7.046875 C-46.90293759 -14.22952303 -19.81744642 -13.21163094 0 0 Z " fill="#40356E" transform="translate(168,45)"/>
<path d="M0 0 C4.92717698 6.2125275 4.47339709 12.32739428 4 20 C2.83018719 27.07253799 -0.58813944 32.34474907 -6 37 C-11.86893095 40.8654369 -18.06572435 42.22805492 -25 41 C-30.81015426 38.96017606 -35.76557493 36.43971489 -39 31 C-39 30.34 -39 29.68 -39 29 C-36.48379831 27.44336675 -33.96257178 25.99155222 -31.375 24.5625 C-19.64928607 17.87509231 -9.17698359 9.94648221 0 0 Z " fill="#FBFBFE" transform="translate(186,140)"/>
<path d="M0 0 C0.99 0.845625 1.98 1.69125 3 2.5625 C3.64710937 3.11421875 4.29421875 3.6659375 4.9609375 4.234375 C6.25218592 5.35246751 7.53019058 6.48620097 8.7890625 7.640625 C18.18234706 16.19450966 28.95540502 22.81104678 40 29 C39.61887346 31.58941855 39.22672014 32.77857706 37.328125 34.6328125 C30.12607292 39.8042108 24.98738975 41.90155634 16 41 C7.48288341 38.30291308 3.06648454 33.81346789 -1.01953125 26.18359375 C-4.17045368 19.16620078 -4.21076773 10.41051852 -1.5 3.25 C-1.005 2.1775 -0.51 1.105 0 0 Z " fill="#FBFBFE" transform="translate(63,140)"/>
<path d="M0 0 C1.14240002 3.42720007 0.83197206 5.11054083 0.1875 8.625 C0.01605469 9.60726562 -0.15539063 10.58953125 -0.33203125 11.6015625 C-0.66267578 12.78878906 -0.66267578 12.78878906 -1 14 C-3.95664519 15.4783226 -6.74229737 15.06032783 -10 15 C-10.6878236 17.35367713 -10.6878236 17.35367713 -11 20 C-9.33045181 23.22404978 -9.33045181 23.22404978 -6.375 23.6875 C-5.59125 23.790625 -4.8075 23.89375 -4 24 C-4.58458988 28.04421195 -6.69905555 30.46546751 -9.1875 33.625 C-14.15087513 40.04365215 -18.43624576 46.70673551 -22 54 C-22.721875 53.175 -23.44375 52.35 -24.1875 51.5 C-26.70733642 48.85393195 -26.70733642 48.85393195 -29.5 48.4375 C-32.91773347 49.20649003 -34.52729534 50.52729534 -37 53 C-38.80979141 56.11662908 -38.80979141 56.11662908 -40 59 C-40.33 59 -40.66 59 -41 59 C-40.5221745 53.0205448 -39.27688456 48.60535822 -36.5 43.3125 C-36.14325195 42.62115967 -35.78650391 41.92981934 -35.41894531 41.2175293 C-26.70819777 24.7304116 -14.79058845 11.26763333 0 0 Z " fill="#98B5D1" transform="translate(57,30)"/>
<path d="M0 0 C2.08967048 0.67070604 2.08967048 0.67070604 4 -0.015625 C6.41698658 -0.56655576 7.86023851 -0.34971201 10.25 0.25 C11.27480469 0.48976563 11.27480469 0.48976563 12.3203125 0.734375 C14.125 1.5 14.125 1.5 16.125 4.5 C15.75 7.6875 15.75 7.6875 15.125 10.5 C16.24390625 10.1390625 17.3628125 9.778125 18.515625 9.40625 C37.73284054 3.67354616 58.72798983 3.11923263 78.125 8.5 C79.77043036 8.89750514 81.41619486 9.29363354 83.0625 9.6875 C84.073125 9.955625 85.08375 10.22375 86.125 10.5 C85.898125 9.406875 85.67125 8.31375 85.4375 7.1875 C85.125 3.5 85.125 3.5 86.0625 1.625 C89.29394005 -0.13760367 92.49628015 -0.63905678 96.125 -0.5 C98.68323426 0.25496763 100.74101233 1.25833975 103.125 2.5 C101.37692871 7.96737191 99.46705919 13.25824848 97.125 18.5 C93.57399597 17.93703595 91.0735333 17.01914439 88 15.1875 C69.42392949 5.81775182 44.1185519 5.506012 24.48828125 11.3515625 C23.37839844 11.73054688 22.26851562 12.10953125 21.125 12.5 C20.04605469 12.85835937 18.96710938 13.21671875 17.85546875 13.5859375 C12.83010512 15.32664752 12.83010512 15.32664752 8.078125 17.6796875 C6.125 18.5 6.125 18.5 4.0078125 18.44921875 C2.125 17.5 2.125 17.5 0.9296875 15.20703125 C0.46949219 13.77423828 0.46949219 13.77423828 0 12.3125 C-0.32742187 11.3225 -0.65484375 10.3325 -0.9921875 9.3125 C-1.28351563 8.384375 -1.57484375 7.45625 -1.875 6.5 C-2.2875 5.283125 -2.7 4.06625 -3.125 2.8125 C-3.3725 2.049375 -3.62 1.28625 -3.875 0.5 C-1.875 -0.5 -1.875 -0.5 0 0 Z " fill="#5A677C" transform="translate(74.875,20.5)"/>
<path d="M0 0 C11.14341824 12.85223615 14.17628384 31.35839708 14.1875 47.8125 C14.19974609 48.74642578 14.21199219 49.68035156 14.22460938 50.64257812 C14.23782081 56.98847174 13.48153974 62.83125466 12 69 C11.67 69 11.34 69 11 69 C9.91556479 64.38484549 10.00076714 60.13732331 10.16015625 55.42578125 C10.25544774 52.81612301 10.25544774 52.81612301 8 51 C7.45578003 49.0914917 7.45578003 49.0914917 7.03857422 46.73730469 C6.87855927 45.85588806 6.71854431 44.97447144 6.55368042 44.06634521 C6.38901276 43.11117004 6.22434509 42.15599487 6.0546875 41.171875 C5.87994904 40.19011292 5.70521057 39.20835083 5.525177 38.19683838 C5.15668421 36.11611036 4.79211752 34.03468383 4.43115234 31.95263672 C3.87937326 28.77518368 3.31375293 25.60043126 2.74609375 22.42578125 C2.38979424 20.40379205 2.03429939 18.38166086 1.6796875 16.359375 C1.51097137 15.41229675 1.34225525 14.46521851 1.16842651 13.48944092 C0.38558821 8.93622806 -0.20711449 4.64129132 0 0 Z " fill="#40346E" transform="translate(201,76)"/>
<path d="M0 0 C0.33 0 0.66 0 1 0 C0.46726604 8.36679681 -0.90421293 16.51262697 -2.46862793 24.73776245 C-4.63531965 36.13307043 -6.67674051 47.51046686 -8.06201172 59.03271484 C-8.79474899 64.79474899 -8.79474899 64.79474899 -11 67 C-15.67875718 43.06314409 -11.57739596 21.36447296 0 0 Z " fill="#40346E" transform="translate(48,77)"/>
<path d="M0 0 C4.90730255 0.64978117 8.9505559 2.7266167 13.375 4.8125 C43.32182841 18.55943862 74.39281141 17.08868859 104.76855469 5.87988281 C108.41778466 4.44095231 111.87576345 2.73215329 115.2578125 0.75 C117 0 117 0 120 1 C94.51754675 17.90835722 63.629668 21.32407824 34.12011719 15.44873047 C23.56410478 13.21451227 7.23591963 8.73206843 0 0 Z " fill="#566073" transform="translate(65,222)"/>
<path d="M0 0 C16.85284232 10.20040456 28.57612438 26.17062945 37.4375 43.375 C37.79215332 44.05328857 38.14680664 44.73157715 38.51220703 45.43041992 C40.34114213 49.08874394 41.45246466 51.88812813 41 56 C38.72195761 53.12071475 36.95965316 50.2169671 35.3125 46.9375 C34.87550781 46.08027344 34.43851563 45.22304687 33.98828125 44.33984375 C33 42 33 42 33 39 C32.34 39 31.68 39 31 39 C30.731875 38.46632812 30.46375 37.93265625 30.1875 37.3828125 C25.90202092 29.23476345 20.63283778 21.34179938 13 16 C9.65426384 15.00532168 6.20840074 14.39579963 3 16 C2.49595192 13.89679937 1.99689492 11.79240209 1.5 9.6875 C1.08234375 7.92986328 1.08234375 7.92986328 0.65625 6.13671875 C0 3 0 3 0 0 Z " fill="#BFC4D2" transform="translate(192,30)"/>
<path d="M0 0 C0.33 0.66 0.66 1.32 1 2 C-0.77653309 5.37878603 -2.98031546 8.37766828 -5.25 11.4375 C-19.89054284 32.37903597 -25.03831021 57.56324767 -21.61914062 82.8125 C-20.92081124 86.46091476 -19.99788487 89.97511077 -18.97265625 93.546875 C-17.9804762 97.0693134 -17.44141841 100.37572252 -17 104 C-17.66 104 -18.32 104 -19 104 C-19.63103848 102.1895935 -20.25446875 100.37653479 -20.875 98.5625 C-21.22304688 97.55316406 -21.57109375 96.54382813 -21.9296875 95.50390625 C-24.42011459 87.35093872 -25.32992501 79.97308104 -25.25 71.4375 C-25.24250732 70.38119385 -25.23501465 69.3248877 -25.22729492 68.23657227 C-24.86109389 41.377056 -16.84550824 20.92586468 0 0 Z " fill="#555F75" transform="translate(52,57)"/>
<path d="M0 0 C2.08967048 0.67070604 2.08967048 0.67070604 4 -0.015625 C6.41698658 -0.56655576 7.86023851 -0.34971201 10.25 0.25 C11.27480469 0.48976563 11.27480469 0.48976563 12.3203125 0.734375 C14.125 1.5 14.125 1.5 16.125 4.5 C15.82314573 7.45817184 15.45781171 9.83437658 14.125 12.5 C12.1640625 13.60546875 12.1640625 13.60546875 9.75 14.6875 C8.95851563 15.05230469 8.16703125 15.41710938 7.3515625 15.79296875 C5.125 16.5 5.125 16.5 2.125 15.5 C0.51953125 12.62890625 0.51953125 12.62890625 -1.0625 9.0625 C-1.59230469 7.88816406 -2.12210937 6.71382812 -2.66796875 5.50390625 C-3.875 2.5 -3.875 2.5 -3.875 0.5 C-1.875 -0.5 -1.875 -0.5 0 0 Z " fill="#A8C4E3" transform="translate(74.875,20.5)"/>
<path d="M0 0 C-1.54269924 4.72065967 -3.07794619 9.41664092 -5 14 C-10.06998019 13.34580901 -14.41990777 11.1453591 -19 9 C-18.34 8.67 -17.68 8.34 -17 8 C-17.226875 6.906875 -17.45375 5.81375 -17.6875 4.6875 C-18 1 -18 1 -16.9375 -0.875 C-10.93946321 -4.35773104 -5.98765646 -2.35514488 0 0 Z " fill="#A7C7E7" transform="translate(178,23)"/>
<path d="M0 0 C3.19789729 0.37184852 5.05597349 1.50802468 7.6875 3.3125 C7.05434209 8.43774666 6.00589344 13.27780771 4.625 18.25 C4.43873047 18.93384766 4.25246094 19.61769531 4.06054688 20.32226562 C3.60660943 21.98670293 3.14759084 23.64975312 2.6875 25.3125 C-1.47606874 20.36267793 -6.43472866 13.90014895 -6.25390625 7.11328125 C-5.24445496 3.38065902 -4.04827896 0.54706472 0 0 Z " fill="#606F83" transform="translate(26.3125,158.6875)"/>
<path d="M0 0 C0.33 0 0.66 0 1 0 C2.04852348 28.90295304 2.04852348 28.90295304 -4 41 C-2.72125 40.95875 -1.4425 40.9175 -0.125 40.875 C2.0546875 40.8046875 2.0546875 40.8046875 4 41 C6 43 6 43 6.25 46 C6 49 6 49 4 51 C1.8359375 51.1953125 1.8359375 51.1953125 -0.625 51.125 C-1.44226563 51.10695312 -2.25953125 51.08890625 -3.1015625 51.0703125 C-3.72804687 51.04710937 -4.35453125 51.02390625 -5 51 C-7.43787025 42.82596447 -6.35834726 37.03423226 -4.0625 28.8125 C-1.53699571 19.34071719 -0.75896198 9.7466696 0 0 Z " fill="#576077" transform="translate(222,118)"/>
<path d="M0 0 C0.495 1.485 0.495 1.485 1 3 C-0.40185547 2.89171875 -0.40185547 2.89171875 -1.83203125 2.78125 C-23.60082743 1.24312112 -47.30202025 0.07314742 -67.05444336 11.15234375 C-69 12 -69 12 -72 11 C-52.45410412 -3.03061984 -22.8916236 -5.02718008 0 0 Z " fill="#D9DAE9" transform="translate(146,10)"/>
<path d="M0 0 C8.87854707 8.47284896 14.92567382 18.91530689 20 30 C20.556875 31.175625 21.11375 32.35125 21.6875 33.5625 C25.56678635 43.72253568 27.17600892 53.60176397 27.0625 64.4375 C27.05798828 65.26443359 27.05347656 66.09136719 27.04882812 66.94335938 C27.03715811 68.96227146 27.01922718 70.98114574 27 73 C26.67 73 26.34 73 26 73 C25.96261719 72.28457031 25.92523438 71.56914062 25.88671875 70.83203125 C25.36739293 62.96068111 24.01006871 55.61975838 22 48 C21.83516113 47.34870117 21.67032227 46.69740234 21.50048828 46.02636719 C17.74121603 31.31617141 12.04714282 18.18270054 2.56640625 6.234375 C1.05372633 4.07663706 0.41924618 2.57452581 0 0 Z " fill="#586379" transform="translate(197,57)"/>
<path d="M0 0 C0.33 0 0.66 0 1 0 C3.85376524 17.79000428 1.95049827 36.99857638 -4 54 C-4.66 54 -5.32 54 -6 54 C-5.87882813 53.42258057 -5.75765625 52.84516113 -5.6328125 52.25024414 C-3.47737628 41.78705205 -1.60956558 31.72851913 -1.9375 21.02197266 C-2.13136751 13.88176298 -1.14795155 7.04145284 0 0 Z " fill="#9199A9" transform="translate(239,107)"/>
<path d="M0 0 C1.37811237 2.2331456 2.08667006 3.43770159 1.6796875 6.078125 C1.41414062 6.79484375 1.14859375 7.5115625 0.875 8.25 C0.58753906 9.02730469 0.30007812 9.80460938 0.00390625 10.60546875 C-1.49178586 14.17301451 -3.19573147 17.57811141 -5 21 C-8.29143365 18.02418328 -9.02788258 15.33713925 -10 11 C-10.125 8.0625 -10.125 8.0625 -10 6 C-7.36 6 -4.72 6 -2 6 C-1.34 4.02 -0.68 2.04 0 0 Z " fill="#5F6F82" transform="translate(228,162)"/>
<path d="M0 0 C0.33 0 0.66 0 1 0 C1.01981934 0.63800537 1.03963867 1.27601074 1.06005859 1.93334961 C1.48641045 15.05014684 2.18046262 27.99825719 4 41 C3.34 41 2.68 41 2 41 C-5.3398045 8.54790839 -5.3398045 8.54790839 0 0 Z " fill="#959BAB" transform="translate(11,113)"/>
<path d="M0 0 C0.66 0.66 1.32 1.32 2 2 C1.54545455 7.45454545 1.54545455 7.45454545 -1 10 C-3.84602594 10.36487512 -5.3864306 10.40199375 -7.8125 8.8125 C-9.44052002 6.32762734 -9.50975499 4.91288568 -9 2 C-6.07557433 -1.24936186 -4.04996841 -1.38551551 0 0 Z " fill="#4B5566" transform="translate(226,79)"/>
<path d="M0 0 C2.5625 0.3125 2.5625 0.3125 4.375 1.5 C6.00302002 3.98487266 6.07225499 5.39961432 5.5625 8.3125 C3.875 10.1875 3.875 10.1875 1.5625 11.3125 C-1.0625 11.1875 -1.0625 11.1875 -3.4375 10.3125 C-5.4375 7.3125 -5.4375 7.3125 -5.1875 4.75 C-4.19253762 1.51637226 -3.41216263 0.43745675 0 0 Z " fill="#596579" transform="translate(165.4375,20.6875)"/>
<path d="M0 0 C2.5625 0.25 2.5625 0.25 5.5625 2.25 C5.96555767 5.40728506 6.05470789 7.40230863 4.4375 10.1875 C1.61055609 11.78943488 -0.38676777 11.04584319 -3.4375 10.25 C-4.4375 9.25 -4.4375 9.25 -4.625 5.8125 C-4.41284057 1.78147086 -4.15916723 0.42658125 0 0 Z " fill="#373F48" transform="translate(26.4375,158.75)"/>
<path d="M0 0 C0.33 0.99 0.66 1.98 1 3 C0.10539062 3.72703125 -0.78921875 4.4540625 -1.7109375 5.203125 C-8.8694066 11.12052803 -15.16383138 17.10561527 -20.9140625 24.40625 C-22.81961509 26.77570117 -24.80794665 28.89721579 -27 31 C-26.54844746 26.20114752 -24.26156679 23.37819047 -21.1875 19.875 C-20.46240234 19.03328247 -20.46240234 19.03328247 -19.72265625 18.17456055 C-13.86871872 11.51476847 -7.39027104 4.92684736 0 0 Z " fill="#D1D2DD" transform="translate(57,30)"/>
<path d="M0 0 C3.625 0.375 3.625 0.375 7 1 C8.32561852 7.38707103 8.32561852 7.38707103 6.9375 10 C4.03375925 11.49870491 2.06725634 10.86683331 -1 10 C-2.38125018 7.23749964 -2.19079306 5.05268901 -2 2 C-1.34 1.34 -0.68 0.68 0 0 Z " fill="#43425B" transform="translate(228,118)"/>
<path d="M0 0 C2.875 0.75 2.875 0.75 3.875 1.75 C4.125 5.1875 4.125 5.1875 3.875 8.75 C0.875 10.75 0.875 10.75 -1.6875 10.5 C-4.125 9.75 -4.125 9.75 -6.125 7.75 C-6.4883156 4.91613833 -6.4818671 3.34477849 -5 0.875 C-3.125 -0.25 -3.125 -0.25 0 0 Z " fill="#3E4854" transform="translate(20.125,118.25)"/>
<path d="M0 0 C2.5625 0.3125 2.5625 0.3125 4.4375 1.4375 C5.5625 3.3125 5.5625 3.3125 5.3125 6.4375 C4.5625 9.3125 4.5625 9.3125 3.5625 10.3125 C0.125 10.5625 0.125 10.5625 -3.4375 10.3125 C-5.4375 7.3125 -5.4375 7.3125 -5.1875 4.75 C-4.19253762 1.51637226 -3.41216263 0.43745675 0 0 Z " fill="#4A5264" transform="translate(27.4375,77.6875)"/>
<path d="M0 0 C3 0.25 3 0.25 5 2.25 C4.625 5.875 4.625 5.875 4 9.25 C1.69 9.58 -0.62 9.91 -3 10.25 C-4.5625 8.5 -4.5625 8.5 -6 6.25 C-5.6357391 2.12170975 -4.23779576 0.35314965 0 0 Z " fill="#576378" transform="translate(126,13.75)"/>
<path d="M0 0 C2.9375 0.875 2.9375 0.875 4.9375 3.875 C4.57861965 6.83576291 4.09091979 7.72158021 1.9375 9.875 C-1.0625 10.125 -1.0625 10.125 -4.0625 9.875 C-6.0625 7.875 -6.0625 7.875 -6.375 5.4375 C-6.0625 2.875 -6.0625 2.875 -4.9375 1 C-3.0625 -0.125 -3.0625 -0.125 0 0 Z " fill="#556175" transform="translate(86.0625,21.125)"/>
<path d="M0 0 C2 2 2 2 2.25 5 C2 8 2 8 0 10 C-3 10.25 -3 10.25 -6 10 C-6.66 9.34 -7.32 8.68 -8 8 C-7.75 4.4375 -7.75 4.4375 -7 1 C-4.48718205 -0.25640898 -2.78302919 -0.20872719 0 0 Z " fill="#363D47" transform="translate(226,159)"/>
<path d="M0 0 C3.625 0.375 3.625 0.375 7 1 C7.625 4.375 7.625 4.375 8 8 C6 10 6 10 2.875 10.125 C1.92625 10.08375 0.9775 10.0425 0 10 C-0.33 10.66 -0.66 11.32 -1 12 C-1.22162329 10.37675914 -1.42689803 8.751279 -1.625 7.125 C-1.74101562 6.22007813 -1.85703125 5.31515625 -1.9765625 4.3828125 C-1.98429688 3.59648438 -1.99203125 2.81015625 -2 2 C-1.34 1.34 -0.68 0.68 0 0 Z " fill="#4F576B" transform="translate(197,44)"/>
<path d="M0 0 C0.33 0.66 0.66 1.32 1 2 C-0.77653309 5.37878603 -2.98031546 8.37766828 -5.25 11.4375 C-10.09931626 18.28844893 -14.34210921 26.02632763 -17 34 C-18.485 34.495 -18.485 34.495 -20 35 C-15.96717616 21.42610511 -8.82854053 10.9521093 0 0 Z " fill="#5A697C" transform="translate(52,57)"/>
<path d="M0 0 C1.60080151 4.00200378 0.29279692 7.04556236 -1 11 C-2.175625 10.896875 -3.35125 10.79375 -4.5625 10.6875 C-9.68015584 10.64188809 -12.15385432 12.7948786 -16 16 C-14.40319592 11.79840927 -11.27263263 9.22622363 -8 6.3125 C-7.4534375 5.81427734 -6.906875 5.31605469 -6.34375 4.80273438 C-2.29882219 1.14941109 -2.29882219 1.14941109 0 0 Z " fill="#A1BCDD" transform="translate(56,34)"/>
<path d="M0 0 C2 1.375 2 1.375 4 3 C4 3.66 4 4.32 4 5 C5.61400692 6.59671399 7.2913834 8.12996047 9 9.625 C9.928125 10.44226562 10.85625 11.25953125 11.8125 12.1015625 C12.534375 12.72804688 13.25625 13.35453125 14 14 C13.34 14.66 12.68 15.32 12 16 C9.66117862 15.70764733 7.32716 15.37400786 5 15 C4.01 15.495 4.01 15.495 3 16 C2.49595192 13.89679937 1.99689492 11.79240209 1.5 9.6875 C1.08234375 7.92986328 1.08234375 7.92986328 0.65625 6.13671875 C0 3 0 3 0 0 Z " fill="#A7C0DE" transform="translate(192,30)"/>
<path d="M0 0 C0.99 0 1.98 0 3 0 C3.1959375 0.680625 3.391875 1.36125 3.59375 2.0625 C5.84015645 9.3439554 8.79287794 15.90386184 12.4453125 22.56640625 C15.08446119 27.53828561 15.08446119 27.53828561 14.59448242 30.21679688 C14.30021362 31.09948242 14.30021362 31.09948242 14 32 C0 10.29787234 0 10.29787234 0 0 Z " fill="#818898" transform="translate(13,154)"/>
<path d="M0 0 C0.66 0.99 1.32 1.98 2 3 C1.63648438 3.48726562 1.27296875 3.97453125 0.8984375 4.4765625 C-3.21307212 10.2748453 -6.02424257 16.3173024 -8.703125 22.86328125 C-9.71451233 25.30949819 -10.77374678 27.65739362 -12 30 C-12.33 30 -12.66 30 -13 30 C-12.53526637 23.79892734 -11.08931268 19.3415727 -8.1875 13.875 C-7.84396484 13.19824219 -7.50042969 12.52148438 -7.14648438 11.82421875 C-5.01309088 7.68551542 -2.65204855 3.82610151 0 0 Z " fill="#BCBECB" transform="translate(29,59)"/>
<path d="M0 0 C8.03425184 1.1635813 14.70580206 10.55534943 19.91796875 16.2734375 C20.27503906 16.84320313 20.63210937 17.41296875 21 18 C20.67 18.99 20.34 19.98 20 21 C12.57657658 13.73873874 12.57657658 13.73873874 10 10.4375 C7.49891205 7.38929906 4.62362479 4.98333467 1.609375 2.453125 C1.07828125 1.97359375 0.5471875 1.4940625 0 1 C0 0.67 0 0.34 0 0 Z " fill="#D6D8E2" transform="translate(194,33)"/>
<path d="M0 0 C0.66 0.33 1.32 0.66 2 1 C2 1.33 2 1.66 2 2 C3.65 2.33 5.3 2.66 7 3 C7 5.97 7 8.94 7 12 C6.67 11.34 6.34 10.68 6 10 C5.236875 10.0825 4.47375 10.165 3.6875 10.25 C1 10 1 10 -0.875 8.3125 C-2.28864911 5.40666572 -1.98170152 4.02691303 -1 1 C-0.67 0.67 -0.34 0.34 0 0 Z " fill="#51596F" transform="translate(47,44)"/>
<path d="M0 0 C1.4540625 0.0309375 1.4540625 0.0309375 2.9375 0.0625 C3.5975 1.7125 4.2575 3.3625 4.9375 5.0625 C3.12637927 7.35023145 2.33029457 8.01459822 -0.625 8.375 C-3.0625 8.0625 -3.0625 8.0625 -5.0625 6.0625 C-4.33395709 0.0884481 -4.33395709 0.0884481 0 0 Z " fill="#292E35" transform="translate(126.0625,226.9375)"/>
<path d="M0 0 C-2.55020603 1.70013735 -4.24874599 2.52824598 -7.08984375 3.4375 C-7.87423828 3.69273438 -8.65863281 3.94796875 -9.46679688 4.2109375 C-10.28212891 4.47132812 -11.09746094 4.73171875 -11.9375 5 C-13.55169968 5.51797988 -15.16501525 6.0387247 -16.77734375 6.5625 C-17.84843384 6.90474609 -17.84843384 6.90474609 -18.94116211 7.25390625 C-21.05298433 7.95774291 -21.05298433 7.95774291 -23.07641602 9.15234375 C-25 10 -25 10 -28 9 C-23.7223022 5.91531191 -19.59586158 3.87828991 -14.5625 2.25 C-13.61793945 1.91935547 -13.61793945 1.91935547 -12.65429688 1.58203125 C-8.32278054 0.1485798 -4.54312222 -0.21103535 0 0 Z " fill="#E8EAF2" transform="translate(102,12)"/>
<path d="M0 0 C0.66 0.33 1.32 0.66 2 1 C0.92170366 3.52309229 -0.16245705 6.04339541 -1.25 8.5625 C-1.55035156 9.26697266 -1.85070312 9.97144531 -2.16015625 10.69726562 C-4.16583889 15.32740533 -6.42285414 19.66104425 -9 24 C-9.66 24 -10.32 24 -11 24 C-9.42341672 18.82451456 -7.25856048 14.05799007 -4.9375 9.1875 C-4.57333984 8.41212891 -4.20917969 7.63675781 -3.83398438 6.83789062 C-1.13446065 1.13446065 -1.13446065 1.13446065 0 0 Z " fill="#7E8696" transform="translate(233,161)"/>
<path d="M0 0 C7.59910454 0.44700615 14.00692989 3.1257676 21 6 C22.66620104 6.66782957 24.3326941 7.33493364 26 8 C26 8.66 26 9.32 26 10 C21.13211375 9.39809753 16.92009144 7.90633778 12.4375 6 C8.34155289 4.26851289 4.42432428 2.67935882 0 2 C0 1.34 0 0.68 0 0 Z " fill="#ECEFF6" transform="translate(153,13)"/>
<path d="M0 0 C5.1986374 7.7979561 6.78063533 18.78416626 6 28 C3.68690276 24.09988986 2.9141093 19.87431848 1.9375 15.5 C1.59258449 13.98955214 1.2475367 12.47913448 0.90234375 10.96875 C0.75273193 10.30294922 0.60312012 9.63714844 0.44897461 8.95117188 C0.13866339 7.60260892 -0.220831 6.2647678 -0.61889648 4.93945312 C-1 3 -1 3 0 0 Z " fill="#B1B4C1" transform="translate(233,83)"/>
<path d="M0 0 C3.3 0 6.6 0 10 0 C9.67 1.65 9.34 3.3 9 5 C5.625 5.625 5.625 5.625 2 6 C1.34 5.34 0.68 4.68 0 4 C0 2.68 0 1.36 0 0 Z " fill="#2D2F3B" transform="translate(80,221)"/>
<path d="M0 0 C0.66 0 1.32 0 2 0 C1.38909604 3.48179686 0.75893864 6.95982953 0.125 10.4375 C-0.04902344 11.43072266 -0.22304687 12.42394531 -0.40234375 13.44726562 C-0.57636719 14.39150391 -0.75039062 15.33574219 -0.9296875 16.30859375 C-1.08679199 17.18314209 -1.24389648 18.05769043 -1.40576172 18.95874023 C-1.60186035 19.63235596 -1.79795898 20.30597168 -2 21 C-2.66 21.33 -3.32 21.66 -4 22 C-4.38588205 14.48244591 -3.79558608 8.03966237 -1 1 C-0.67 0.67 -0.34 0.34 0 0 Z " fill="#A9B1BE" transform="translate(15,90)"/>
<path d="M0 0 C-1 3 -1 3 -2.85546875 3.94921875 C-7.37075277 5.37868052 -11.19984755 6.3692425 -16 6 C-16 5.01 -16 4.02 -16 3 C-13.71068726 2.30364247 -11.4191243 1.61765623 -9.125 0.9375 C-8.47402344 0.73833984 -7.82304688 0.53917969 -7.15234375 0.33398438 C-2.2265625 -1.11328125 -2.2265625 -1.11328125 0 0 Z " fill="#4A2569" transform="translate(79,100)"/>
<path d="M0 0 C5.06040549 0.63888887 9.28011534 2.86279277 13.8125 5.0625 C14.60076172 5.43955078 15.38902344 5.81660156 16.20117188 6.20507812 C18.13652473 7.13170161 20.06859549 8.06517467 22 9 C16.60917007 10.56110041 12.91691161 8.35571437 8 6 C5.23902022 4.46858839 2.52661675 2.89849135 0 1 C0 0.67 0 0.34 0 0 Z " fill="#596376" transform="translate(65,222)"/>
<path d="M0 0 C3.69521992 6.15869986 3.13520373 13.49708969 3.0625 20.4375 C3.05798828 21.26443359 3.05347656 22.09136719 3.04882812 22.94335938 C3.03715811 24.96227146 3.01922718 26.98114574 3 29 C2.67 29 2.34 29 2 29 C1.93941406 28.15695313 1.87882813 27.31390625 1.81640625 26.4453125 C1.73261719 25.34960938 1.64882812 24.25390625 1.5625 23.125 C1.48128906 22.03445312 1.40007812 20.94390625 1.31640625 19.8203125 C1.16998297 17.05271029 1.16998297 17.05271029 0 15 C-0.0716735 12.44842345 -0.09308442 9.92527029 -0.0625 7.375 C-0.05798828 6.66859375 -0.05347656 5.9621875 -0.04882812 5.234375 C-0.03703875 3.48954725 -0.01910324 1.744763 0 0 Z " fill="#617385" transform="translate(221,101)"/>
<path d="M0 0 C3.3 0 6.6 0 10 0 C9.67 1.32 9.34 2.64 9 4 C6.1875 4.625 6.1875 4.625 3 5 C2.01 4.34 1.02 3.68 0 3 C0 2.01 0 1.02 0 0 Z " fill="#2B3137" transform="translate(161,222)"/>
<path d="M0 0 C3.85093127 4.42857096 6.771355 10.19909881 7.25 16.0625 C7.1675 16.701875 7.085 17.34125 7 18 C4.57714777 14.98568679 2.87243634 11.94482561 1.25 8.4375 C0.80140625 7.48746094 0.3528125 6.53742188 -0.109375 5.55859375 C-1 3 -1 3 0 0 Z " fill="#B8BCC9" transform="translate(226,68)"/>
<path d="M0 0 C0.98484375 0.01804688 1.9696875 0.03609375 2.984375 0.0546875 C4.10585937 0.08949219 4.10585937 0.08949219 5.25 0.125 C5.25 0.455 5.25 0.785 5.25 1.125 C10.695 1.62 10.695 1.62 16.25 2.125 C16.25 2.455 16.25 2.785 16.25 3.125 C13.41660035 3.15224423 10.58346883 3.17195589 7.75 3.1875 C6.56277344 3.20006836 6.56277344 3.20006836 5.3515625 3.21289062 C0.22238283 3.23391185 -4.67336106 2.86437287 -9.75 2.125 C-6.40060119 0.09941119 -3.88037449 -0.09238987 0 0 Z " fill="#51546E" transform="translate(117.75,236.875)"/>
<path d="M0 0 C0.33 0 0.66 0 1 0 C1.66 5.61 2.32 11.22 3 17 C2.34 17 1.68 17 1 17 C-1.20927172 11.02197063 -0.93213141 6.26039609 0 0 Z " fill="#8A93A2" transform="translate(12,137)"/>
<path d="M0 0 C-1.69736952 2.06346883 -2.66883717 2.92141899 -5.3046875 3.546875 C-13.91018444 4.22694467 -13.91018444 4.22694467 -18 3 C-18 2.67 -18 2.34 -18 2 C-11.88019467 0.59545452 -6.28260706 -0.23268915 0 0 Z " fill="#D1CBDD" transform="translate(115,9)"/>
<path d="M0 0 C2.4375 0.75 2.4375 0.75 4.4375 2.75 C4.1075 3.74 3.7775 4.73 3.4375 5.75 C3.1075 5.09 2.7775 4.43 2.4375 3.75 C-0.43663125 3.41602213 -0.43663125 3.41602213 -3.5625 3.75 C-5.47506712 5.63077873 -5.47506712 5.63077873 -6.5625 7.75 C-6.25 4.875 -6.25 4.875 -5.5625 1.75 C-2.5625 -0.25 -2.5625 -0.25 0 0 Z " fill="#41285B" transform="translate(126.5625,224.25)"/>
<path d="M0 0 C3.78717347 1.48781815 5.77407001 3.61988409 8 7 C7.67 7.99 7.34 8.98 7 10 C4.36 7.36 1.72 4.72 -1 2 C-0.67 1.34 -0.34 0.68 0 0 Z " fill="#CCD2DE" transform="translate(207,44)"/>
<path d="M0 0 C2.625 0.1875 2.625 0.1875 5.625 2.1875 C5.295 3.5075 4.965 4.8275 4.625 6.1875 C4.295 5.5275 3.965 4.8675 3.625 4.1875 C-0.51593698 3.97779441 -0.51593698 3.97779441 -4.375 5.1875 C-3.26177615 0.25750864 -3.26177615 0.25750864 0 0 Z " fill="#493166" transform="translate(26.375,158.8125)"/>
<path d="M0 0 C0.33 1.32 0.66 2.64 1 4 C0.34 3.67 -0.32 3.34 -1 3 C-2.99960012 2.960008 -5.00047242 2.95653201 -7 3 C-7.66 4.32 -8.32 5.64 -9 7 C-9.22417836 4.2351335 -9.32233508 2.53722513 -7.875 0.125 C-5.07848948 -1.55290631 -3.06309468 -0.74875648 0 0 Z " fill="#4A3168" transform="translate(23,119)"/>
<path d="M0 0 C-1.4859916 4.59306496 -3.85014682 7.43569245 -7 11 C-7.67578125 9.234375 -7.67578125 9.234375 -8 7 C-6.85546875 5.078125 -6.85546875 5.078125 -5.1875 3.25 C-4.64480469 2.63640625 -4.10210937 2.0228125 -3.54296875 1.390625 C-2 0 -2 0 0 0 Z " fill="#C9CCD8" transform="translate(38,50)"/>
<path d="M0 0 C2.5625 0.1875 2.5625 0.1875 4.5625 2.1875 C4.2325 3.1775 3.9025 4.1675 3.5625 5.1875 C3.2325 4.8575 2.9025 4.5275 2.5625 4.1875 C-1.06944641 3.99600919 -1.06944641 3.99600919 -4.4375 5.1875 C-3.32386364 0.25568182 -3.32386364 0.25568182 0 0 Z " fill="#4F376F" transform="translate(165.4375,20.8125)"/>
<path d="M0 0 C3.72433382 1.2125738 7.37802806 2.50859979 11 4 C11 4.66 11 5.32 11 6 C6.15340923 5.40895235 2.39251833 4.02055843 -2 2 C-1.34 1.34 -0.68 0.68 0 0 Z " fill="#E3E4EE" transform="translate(168,17)"/>
<path d="M0 0 C0.33 1.32 0.66 2.64 1 4 C-0.11375 3.814375 -1.2275 3.62875 -2.375 3.4375 C-5.82568861 2.68319343 -5.82568861 2.68319343 -8 4 C-7.625 2.0625 -7.625 2.0625 -7 0 C-4.3333581 -1.33332095 -2.83319697 -0.67102033 0 0 Z " fill="#492E67" transform="translate(226,79)"/>
<path d="M0 0 C2.97 0.495 2.97 0.495 6 1 C6.33 2.65 6.66 4.3 7 6 C6.34 5.34 5.68 4.68 5 4 C1.41656024 3.83322718 1.41656024 3.83322718 -2 4 C-1.34 2.68 -0.68 1.36 0 0 Z " fill="#4D336D" transform="translate(83,21)"/>
<path d="M0 0 C0.99 0.33 1.98 0.66 3 1 C0.525 5.455 0.525 5.455 -2 10 C-2.66 10 -3.32 10 -4 10 C-2.8905928 6.51329166 -1.73662334 3.22515763 0 0 Z " fill="#777E90" transform="translate(226,175)"/>
<path d="M0 0 C0.66 0.66 1.32 1.32 2 2 C1.67 2.99 1.34 3.98 1 5 C0.34 4.34 -0.32 3.68 -1 3 C-3.61580479 3.3269756 -5.64078137 3.82039068 -8 5 C-7.625 3.0625 -7.625 3.0625 -7 1 C-4.48718205 -0.25640898 -2.78302919 -0.20872719 0 0 Z " fill="#462A63" transform="translate(226,159)"/>
<path d="M0 0 C0.33 0 0.66 0 1 0 C2.32286246 4.96073422 2.08893197 9.91111512 2 15 C-0.23605313 10.92034388 -0.63330451 7.62036312 -1 3 C-0.67 2.01 -0.34 1.02 0 0 Z " fill="#A9AEBB" transform="translate(237,96)"/>
<path d="M0 0 C0.66 0.33 1.32 0.66 2 1 C-0.87494471 4.98069267 -3.82117329 7.43571997 -8 10 C-6.34908222 5.70761377 -3.26245434 3.1206085 0 0 Z " fill="#AAC7E2" transform="translate(48,40)"/>
<path d="M0 0 C1.74271938 2.297221 3.39911152 4.59866729 5 7 C4.625 9.1875 4.625 9.1875 4 11 C3.13341385 9.73760288 2.28207941 8.46472499 1.4375 7.1875 C0.72400391 6.12595703 0.72400391 6.12595703 -0.00390625 5.04296875 C-1 3 -1 3 0 0 Z " fill="#757B8E" transform="translate(23,175)"/>
<path d="M0 0 C3.9492568 0.55105909 7.34920174 1.38935371 11 3 C10.67 3.66 10.34 4.32 10 5 C6.05140217 4.4359146 3.29120954 3.2568294 0 1 C0 0.67 0 0.34 0 0 Z " fill="#585F78" transform="translate(162,34)"/>
<path d="M0 0 C-0.66 0.474375 -1.32 0.94875 -2 1.4375 C-2.99 2.2109375 -2.99 2.2109375 -4 3 C-4 3.33 -4 3.66 -4 4 C-5.98 4 -7.96 4 -10 4 C-10 3.01 -10 2.02 -10 1 C-8.71073008 0.63720544 -7.41846728 0.28503302 -6.125 -0.0625 C-5.40570313 -0.25972656 -4.68640625 -0.45695312 -3.9453125 -0.66015625 C-2 -1 -2 -1 0 0 Z " fill="#53306E" transform="translate(73,102)"/>
<path d="M0 0 C2.31 0.33 4.62 0.66 7 1 C7.33 2.32 7.66 3.64 8 5 C5.36 4.34 2.72 3.68 0 3 C0 2.01 0 1.02 0 0 Z " fill="#4C326B" transform="translate(197,44)"/>
<path d="M0 0 C1.98 0 3.96 0 6 0 C6.33 1.32 6.66 2.64 7 4 C5.88625 3.814375 4.7725 3.62875 3.625 3.4375 C0.17431139 2.68319343 0.17431139 2.68319343 -2 4 C-1.34 2.68 -0.68 1.36 0 0 Z " fill="#4C2E6B" transform="translate(123,14)"/>
<path d="M0 0 C1.65 0 3.3 0 5 0 C5.66 1.32 6.32 2.64 7 4 C5.6078125 3.7215625 5.6078125 3.7215625 4.1875 3.4375 C0.98656229 2.75876119 0.98656229 2.75876119 -2 4 C-1.34 2.68 -0.68 1.36 0 0 Z " fill="#492967" transform="translate(25,78)"/>
<path d="M0 0 C1.670625 0.061875 1.670625 0.061875 3.375 0.125 C3.375 0.785 3.375 1.445 3.375 2.125 C-3.375 3.25 -3.375 3.25 -5.625 2.125 C-3.625 0.125 -3.625 0.125 0 0 Z " fill="#4B2E6A" transform="translate(52.625,43.875)"/>
</svg>
